<svg id="Layer_1" data-name="Layer 1" xmlns="http://www.w3.org/2000/svg" width="103.61" height="30" viewBox="0 0 103.61 30"><defs><style>.cls-1{fill:#0577b6;}.cls-2{fill:#424242;}</style></defs><path id="Path_4060" data-name="Path 4060" class="cls-1" d="M27.91,16.15a1.63,1.63,0,0,1,0-2.3l1.4-1.17a1,1,0,0,0,.32-.95,15,15,0,1,0,0,6.54,1,1,0,0,0-.32-.94ZM15.15,26.37a11.37,11.37,0,1,1,10.39-16,.63.63,0,0,1-.17.75l-1.46,1.23a.3.3,0,0,1-.4,0L20,9.46a7.44,7.44,0,1,0-5,13,7.91,7.91,0,0,0,5.33-2.24l2.4-2a.33.33,0,0,0,0-.45.08.08,0,0,0,0,0L20.4,15.74a.33.33,0,0,0-.4,0l-3,2.51h0a3.81,3.81,0,1,1-1.5-7h0a3.68,3.68,0,0,1,1.44.49h0l.31.24h0l8.2,6.75a.63.63,0,0,1,.18.73A11.37,11.37,0,0,1,15.15,26.37Z"/><path class="cls-2" d="M51,21.43l-2.35-2.28-.35.36a6,6,0,0,1-4.62,2,6.17,6.17,0,0,1-6.45-6.3,6.17,6.17,0,0,1,6.45-6.3,6,6,0,0,1,4.62,1.94l.35.37L51,8.91l-.32-.36a9.29,9.29,0,0,0-7.1-2.93c-5.73,0-9.88,4-9.88,9.56a9.48,9.48,0,0,0,9.85,9.55,9.3,9.3,0,0,0,7.13-2.95Z"/><path class="cls-2" d="M62.7,10.13l-4.31,10L54,10.13H50.42L56.56,24l-.34.75c-.63,1.48-1.25,1.77-2.1,1.77a2.92,2.92,0,0,1-2-.85l-.46-.45-1.55,2.72.27.27a5.57,5.57,0,0,0,3.79,1.38c2.46,0,4.08-1.24,5.24-4l6.81-15.44Z"/><path class="cls-2" d="M73,10a7.16,7.16,0,0,0-7.48,7.33,7.47,7.47,0,0,0,14.94,0A7.15,7.15,0,0,0,73,10Zm4,7.33a4,4,0,1,1-8,0,4,4,0,0,1,4-4.21A3.88,3.88,0,0,1,77,17.33Z"/><rect class="cls-2" x="82.86" y="4.76" width="3.43" height="19.77"/><path class="cls-2" d="M96.16,10a7.16,7.16,0,0,0-7.48,7.33,7.47,7.47,0,0,0,14.93,0A7.14,7.14,0,0,0,96.16,10Zm0,11.56a4,4,0,0,1-4-4.23,4,4,0,0,1,4-4.21,3.89,3.89,0,0,1,4,4.21A3.94,3.94,0,0,1,96.16,21.56Z"/></svg>