<svg height="39" viewBox="0 0 132 39" fill="none" xmlns="http://www.w3.org/2000/svg">
<path d="M36.0567 20.861C35.2338 20.038 35.2338 18.7175 36.0567 17.8946L37.8557 16.3827C38.2193 16.0764 38.3725 15.598 38.2768 15.1387C35.9419 4.70835 25.5881 -1.85605 15.1578 0.478811C4.7275 2.81367 -1.85604 13.1674 0.478818 23.5978C2.81368 34.0281 13.1674 40.6116 23.5978 38.2768C30.9086 36.6309 36.6309 30.9277 38.2768 23.5978C38.3725 23.1384 38.2193 22.6791 37.8749 22.3729L36.0567 20.861ZM19.5787 34.0663C11.4641 34.0663 4.89974 27.5019 4.89974 19.3874C4.89974 11.2728 11.4641 4.70835 19.5787 4.70835C25.3776 4.70835 30.6406 8.13409 32.9946 13.4354C33.1477 13.7607 33.052 14.1626 32.7841 14.4114L30.8894 15.9999C30.7363 16.1147 30.5258 16.1147 30.3727 15.9999L25.7987 12.2297C21.837 8.6891 15.7702 9.03359 12.2297 12.9952C8.68911 16.9568 9.03359 23.0236 12.9952 26.5642C14.7559 28.1335 17.0334 29.0139 19.4065 29.0139C22.105 29.0139 24.3633 27.8273 26.2771 26.1049L29.3775 23.4829C29.5497 23.3298 29.5689 23.081 29.4158 22.9088C29.3966 22.8896 29.3775 22.8705 29.3584 22.8514L26.3537 20.3443C26.2006 20.2103 25.99 20.2103 25.8369 20.3443L21.9519 23.5786C20.995 24.1719 19.8658 24.4207 18.7367 24.2676C16.0382 23.904 14.1435 21.4351 14.5071 18.7367C14.8707 16.0382 17.3396 14.1435 20.0381 14.5071C20.6888 14.6028 21.3203 14.8133 21.8945 15.1387C21.971 15.1961 22.2198 15.3875 22.2964 15.4449L32.8798 24.1719C33.1477 24.4016 33.2626 24.7843 33.1286 25.1097C30.7937 30.5258 25.4733 34.0663 19.5787 34.0663Z" fill="#A5CE39"/>
<path d="M54.295 31.2919C57.8547 31.2919 60.9168 30.048 63.022 27.694L60.8976 25.6462C59.1369 27.5026 56.9743 28.3829 54.4672 28.3829C49.2999 28.3829 45.4914 24.651 45.4914 19.5985C45.4914 14.546 49.319 10.8141 54.4672 10.8141C56.9743 10.8141 59.1369 11.6561 60.8976 13.5317L63.022 11.4648C60.9359 9.11077 57.8547 7.90506 54.3332 7.90506C47.3669 7.90506 42.2188 12.8427 42.2188 19.5985C42.2188 26.3543 47.3669 31.2919 54.295 31.2919ZM79.4808 13.7231L73.5097 27.5791L67.462 13.7231H64.1894L71.8255 31.0049L71.2705 32.2106C70.4285 34.2009 69.4715 34.8899 67.9788 34.8899C66.8113 34.8899 65.7013 34.4306 64.8784 33.6077L63.5387 35.9617C64.6104 37.0143 66.3137 37.5693 67.9788 37.5693C70.6198 37.5693 72.6102 36.421 74.1604 32.7656L82.5621 13.7231H79.4808ZM92.4182 31.2345C97.6047 31.2345 101.394 27.5409 101.394 22.3735C101.394 17.2062 97.6047 13.5508 92.4182 13.5508C87.2318 13.5508 83.4041 17.2062 83.4041 22.3735C83.4041 27.5409 87.2127 31.2345 92.4182 31.2345ZM92.4182 28.4786C89.0882 28.4786 86.5811 26.0672 86.5811 22.3735C86.5811 18.6799 89.0882 16.3067 92.4182 16.3067C95.7483 16.3067 98.2363 18.699 98.2363 22.3735C98.2363 26.0481 95.7483 28.4786 92.4182 28.4786ZM105.738 31.0431H108.877V6.79504H105.738V31.0431ZM122.274 31.2345C127.46 31.2345 131.25 27.5409 131.25 22.3735C131.25 17.2062 127.46 13.5508 122.274 13.5508C117.087 13.5508 113.26 17.2254 113.26 22.3735C113.26 27.5217 117.087 31.2345 122.274 31.2345ZM122.274 28.4786C118.944 28.4786 116.418 26.0672 116.418 22.3735C116.418 18.6799 118.944 16.3067 122.274 16.3067C125.604 16.3067 128.092 18.699 128.092 22.3735C128.092 26.0481 125.604 28.4786 122.274 28.4786Z" fill="#fff" stroke="#fff" stroke-width="0.191382"/>
</svg>
