<svg width="58" height="19" viewBox="0 0 58 19" fill="none" xmlns="http://www.w3.org/2000/svg">
<g clip-path="url(#clip0)">
<path d="M21.4131 9.84526C21.4131 7.25925 23.3961 5.39209 26.0601 5.39209C27.4726 5.39209 28.6872 5.89965 29.4924 6.83897L28.4526 7.81504C27.82 7.13523 27.0401 6.79993 26.136 6.79993C24.3393 6.79993 23.0372 8.06078 23.0372 9.84297C23.0372 11.6252 24.3393 12.886 26.136 12.886C27.0401 12.886 27.82 12.553 28.4526 11.8594L29.4924 12.8493C28.6872 13.7886 27.4726 14.2961 26.0486 14.2961C23.3961 14.2984 21.4131 12.4313 21.4131 9.84526Z" fill="#000850"/>
<path d="M37.7811 7.56919L34.6823 14.7071C34.075 16.2045 33.233 16.6616 32.1288 16.6616C31.4732 16.6616 30.7784 16.4388 30.3574 16.0553L30.9763 14.9161C31.273 15.2009 31.694 15.3732 32.1173 15.3732C32.6625 15.3732 32.9846 15.1136 33.2813 14.4568L33.3918 14.1973L30.5047 7.56689H32.115L34.1969 12.4518L36.2904 7.56689H37.7811V7.56919Z" fill="#000850"/>
<path d="M38.7083 10.8717C38.7083 8.89196 40.1944 7.49561 42.228 7.49561C44.2846 7.49561 45.7593 8.89426 45.7593 10.8717C45.7593 12.8491 44.2846 14.2615 42.228 14.2615C40.1944 14.2615 38.7083 12.8514 38.7083 10.8717ZM44.1972 10.8717C44.1972 9.61081 43.3552 8.80698 42.228 8.80698C41.1123 8.80698 40.2703 9.61081 40.2703 10.8717C40.2703 12.1325 41.1123 12.9363 42.228 12.9363C43.3552 12.9386 44.1972 12.1348 44.1972 10.8717Z" fill="#000850"/>
<path d="M47.4778 4.99707H49.026V14.1744H47.4778V4.99707Z" fill="#000850"/>
<path d="M50.7444 10.8717C50.7444 8.89196 52.2305 7.49561 54.2641 7.49561C56.3208 7.49561 57.7954 8.89426 57.7954 10.8717C57.7954 12.8491 56.3208 14.2615 54.2641 14.2615C52.2305 14.2615 50.7444 12.8514 50.7444 10.8717ZM56.2334 10.8717C56.2334 9.61081 55.3914 8.80698 54.2641 8.80698C53.1484 8.80698 52.3064 9.61081 52.3064 10.8717C52.3064 12.1325 53.1484 12.9363 54.2641 12.9363C55.3914 12.9386 56.2334 12.1348 56.2334 10.8717Z" fill="#000850"/>
<path d="M16.7154 10.5847C16.3382 10.2081 16.3405 9.59715 16.7177 9.2205L17.5482 8.52921C17.7116 8.39141 17.7852 8.17323 17.7369 7.96424C16.6602 3.18035 11.9028 0.171759 7.11089 1.24429C2.31896 2.31682 -0.696982 7.06626 0.377347 11.8524C1.45168 16.6386 6.2091 19.6472 11.0033 18.5724C14.3643 17.8191 16.9869 15.1986 17.7369 11.8433C17.7852 11.6366 17.7116 11.4207 17.5482 11.2829L16.7154 10.5847ZM9.14222 16.6409C5.41773 16.6409 2.39718 13.6254 2.39718 9.90719C2.39718 6.18894 5.41773 3.17346 9.14222 3.17346C11.8085 3.17346 14.2263 4.74206 15.3075 7.1742C15.3789 7.32807 15.3374 7.50951 15.2086 7.61745L14.339 8.34548C14.27 8.4029 14.1688 8.4029 14.0998 8.34778L12.0017 6.62071C10.1843 4.99929 7.39385 5.15546 5.7674 6.9698C4.14095 8.78414 4.29969 11.57 6.11707 13.1937C6.92685 13.9171 7.97357 14.3144 9.0594 14.3144C10.2971 14.3144 11.3392 13.7701 12.218 12.9824L13.642 11.7789C13.7202 11.7123 13.7294 11.5929 13.6627 11.5148C13.6558 11.5057 13.6489 11.4988 13.6397 11.4919L12.2594 10.3436C12.1904 10.2861 12.0892 10.2861 12.0201 10.3436L10.2304 11.8272C9.78866 12.1005 9.26875 12.213 8.75344 12.1441C7.51577 11.9811 6.64389 10.8465 6.80722 9.61093C6.97056 8.37534 8.107 7.50491 9.34466 7.66797C9.64603 7.70702 9.93589 7.80807 10.1958 7.96194C10.2304 7.98491 10.3454 8.07448 10.3799 8.09974L15.2454 12.1028C15.372 12.2061 15.418 12.3807 15.3559 12.5322C14.2999 15.0218 11.8522 16.6386 9.14222 16.6409Z" fill="#000850"/>
</g>
<defs>
<clipPath id="clip0">
<rect width="58" height="18.1687" fill="white" transform="translate(0 0.831055)"/>
</clipPath>
</defs>
</svg>
