<svg width="286" height="280" viewBox="0 0 286 280" fill="none" xmlns="http://www.w3.org/2000/svg">
<g clip-path="url(#clip0)">
<path d="M260.53 272.58V123.2C260.53 121.012 259.661 118.914 258.114 117.367C256.566 115.819 254.468 114.95 252.28 114.95H33.35C31.162 114.95 29.0635 115.819 27.5164 117.367C25.9692 118.914 25.1 121.012 25.1 123.2V272.58H0V274.64C0.555859 274.907 1.13937 275.111 1.74 275.25C7.56 276.85 24.18 279.25 26.33 279.25H259.33C261.48 279.25 278.1 276.87 283.92 275.25C284.521 275.111 285.104 274.907 285.66 274.64V272.58H260.53Z" fill="#000850"/>
<path d="M254.79 124.64H31.2V264.81H254.79V124.64Z" fill="url(#paint0_linear)"/>
<path d="M145.39 122.23C146.826 122.23 147.99 121.066 147.99 119.63C147.99 118.194 146.826 117.03 145.39 117.03C143.954 117.03 142.79 118.194 142.79 119.63C142.79 121.066 143.954 122.23 145.39 122.23Z" fill="black"/>
<path d="M240.99 133.89H44.99C43.3331 133.89 41.99 135.233 41.99 136.89V253.89C41.99 255.547 43.3331 256.89 44.99 256.89H240.99C242.647 256.89 243.99 255.547 243.99 253.89V136.89C243.99 135.233 242.647 133.89 240.99 133.89Z" fill="white"/>
<path d="M45 133.89H241C241.796 133.89 242.559 134.206 243.121 134.769C243.684 135.331 244 136.094 244 136.89V140.89H42V136.89C42 136.094 42.3161 135.331 42.8787 134.769C43.4413 134.206 44.2044 133.89 45 133.89Z" fill="#EFEFEF"/>
<g opacity="0.5">
<path opacity="0.5" d="M49.5101 139.28C50.5539 139.28 51.4001 138.434 51.4001 137.39C51.4001 136.346 50.5539 135.5 49.5101 135.5C48.4663 135.5 47.6201 136.346 47.6201 137.39C47.6201 138.434 48.4663 139.28 49.5101 139.28Z" fill="#4D5986"/>
<path opacity="0.5" d="M54.6302 139.28C55.6741 139.28 56.5202 138.434 56.5202 137.39C56.5202 136.346 55.6741 135.5 54.6302 135.5C53.5864 135.5 52.7402 136.346 52.7402 137.39C52.7402 138.434 53.5864 139.28 54.6302 139.28Z" fill="#4D5986"/>
<path opacity="0.5" d="M60.0284 138.972C61.0513 138.773 61.7198 137.783 61.5215 136.76C61.3232 135.738 60.3331 135.069 59.3102 135.267C58.2873 135.466 57.6188 136.456 57.8171 137.479C58.0154 138.502 59.0055 139.17 60.0284 138.972Z" fill="#4D5986"/>
</g>
<path d="M144.93 230.92H140.83C140.66 230.869 140.486 230.832 140.31 230.81C135.472 230.523 130.76 229.156 126.52 226.81C115.02 220.37 108.77 210.53 107.94 197.36C107.564 191.758 108.686 186.156 111.19 181.13C117.4 168.66 127.52 161.88 141.42 160.96C147.645 160.553 153.855 161.956 159.3 165C164.008 167.468 168.082 170.99 171.205 175.292C174.327 179.594 176.413 184.559 177.3 189.8C177.55 191.13 177.67 192.49 177.85 193.8V198C177.85 198.2 177.75 198.39 177.73 198.59C177.436 203.446 176.07 208.176 173.73 212.44C171.257 217.15 167.73 221.226 163.423 224.348C159.116 227.47 154.146 229.555 148.9 230.44C147.6 230.62 146.26 230.74 144.93 230.92ZM142.86 221.76C148.858 221.764 154.669 219.674 159.29 215.85C159.957 215.336 160.488 214.666 160.837 213.899C161.186 213.132 161.341 212.291 161.29 211.45C161.188 208.384 159.882 205.481 157.654 203.372C155.427 201.262 152.457 200.115 149.39 200.18C145.04 200.18 140.69 200.18 136.39 200.18C133.453 200.112 130.599 201.153 128.395 203.095C126.192 205.037 124.801 207.738 124.5 210.66C124.329 211.578 124.406 212.525 124.722 213.404C125.038 214.283 125.583 215.062 126.3 215.66C130.928 219.582 136.793 221.743 142.86 221.76ZM131.31 183C131.31 185.292 131.99 187.533 133.264 189.438C134.539 191.343 136.349 192.827 138.468 193.702C140.586 194.578 142.916 194.805 145.164 194.355C147.411 193.905 149.474 192.798 151.092 191.174C152.71 189.551 153.81 187.484 154.252 185.235C154.695 182.986 154.46 180.656 153.577 178.541C152.694 176.426 151.204 174.62 149.294 173.352C147.385 172.085 145.142 171.412 142.85 171.42C139.788 171.439 136.858 172.666 134.696 174.835C132.535 177.004 131.318 179.938 131.31 183Z" fill="#E0E0E0"/>
<path d="M142.86 221.76C148.858 221.764 154.669 219.673 159.29 215.85C159.957 215.336 160.488 214.666 160.837 213.899C161.186 213.132 161.341 212.291 161.29 211.45C161.188 208.384 159.882 205.481 157.654 203.371C155.427 201.262 152.457 200.115 149.39 200.18C145.04 200.18 140.69 200.18 136.39 200.18C133.453 200.112 130.599 201.152 128.395 203.095C126.192 205.037 124.801 207.738 124.5 210.66C124.329 211.578 124.406 212.525 124.722 213.404C125.038 214.283 125.583 215.061 126.3 215.66C130.928 219.582 136.793 221.742 142.86 221.76ZM131.31 183C131.31 185.292 131.99 187.532 133.264 189.438C134.539 191.343 136.349 192.827 138.468 193.702C140.586 194.578 142.916 194.805 145.164 194.354C147.411 193.904 149.474 192.798 151.092 191.174C152.71 189.551 153.81 187.483 154.252 185.235C154.695 182.986 154.46 180.656 153.577 178.541C152.694 176.425 151.204 174.62 149.294 173.352C147.385 172.085 145.142 171.412 142.85 171.42C139.788 171.438 136.858 172.666 134.696 174.834C132.535 177.003 131.318 179.938 131.31 183Z" fill="#71757A"/>
<path d="M172.555 241.928C180.833 241.59 187.269 234.606 186.93 226.329C186.592 218.051 179.608 211.615 171.331 211.953C163.053 212.292 156.617 219.276 156.955 227.553C157.294 235.831 164.278 242.267 172.555 241.928Z" fill="#0D6EFD"/>
<path d="M169.47 233C169.283 233.002 169.099 232.966 168.927 232.893C168.755 232.821 168.599 232.715 168.47 232.58C167.01 231.12 165.54 229.66 164.09 228.19C163.938 228.064 163.815 227.907 163.727 227.731C163.64 227.554 163.59 227.361 163.581 227.164C163.572 226.967 163.604 226.77 163.676 226.586C163.747 226.402 163.856 226.235 163.995 226.096C164.135 225.956 164.302 225.847 164.486 225.776C164.67 225.704 164.866 225.672 165.063 225.681C165.261 225.69 165.454 225.74 165.63 225.828C165.807 225.915 165.964 226.039 166.09 226.19C167.09 227.19 168.09 228.19 169.09 229.19C169.42 229.52 169.42 229.52 169.76 229.19L177.55 221.4C177.692 221.231 177.867 221.093 178.065 220.995C178.263 220.897 178.479 220.841 178.7 220.83C178.968 220.817 179.234 220.884 179.464 221.023C179.694 221.162 179.877 221.367 179.99 221.61C180.116 221.847 180.169 222.115 180.145 222.381C180.12 222.648 180.017 222.901 179.85 223.11C179.768 223.208 179.682 223.302 179.59 223.39C176.59 226.404 173.59 229.404 170.59 232.39C170.46 232.568 170.292 232.715 170.098 232.82C169.904 232.926 169.69 232.987 169.47 233Z" fill="white"/>
<path d="M118.6 56.21L83.8099 157.87C83.6289 158.437 83.6205 159.044 83.7858 159.616C83.9511 160.188 84.2826 160.697 84.7381 161.08C85.1937 161.462 85.7527 161.701 86.3442 161.765C86.9357 161.829 87.5329 161.716 88.0599 161.44L182.45 109.56L118.6 56.21Z" fill="#FBD019"/>
<path d="M182.9 108.9C180.43 111.69 162.79 100.17 148.64 87.9C133.73 75 116.28 58.13 118.75 55.34C121.22 52.55 139 64.22 155 77.91C171 91.6 185.37 106.12 182.9 108.9Z" fill="#D69515"/>
<path d="M101.46 64.3301H94.78V71.0101H101.46V64.3301Z" fill="#4A75FF"/>
<path d="M182.92 129.2H176.24V135.88H182.92V129.2Z" fill="#4A75FF"/>
<path d="M159.902 7.11142L153.736 9.68066L156.305 15.8468L162.471 13.2776L159.902 7.11142Z" fill="#FAD11B"/>
<path d="M157.66 36.1802H150.98V42.8602H157.66V36.1802Z" fill="#F04563"/>
<path d="M184.247 15.5451L179.524 20.2686L184.247 24.992L188.971 20.2686L184.247 15.5451Z" fill="#4A75FF"/>
<path d="M220.737 32.9306L215.5 37.0771L219.646 42.3144L224.883 38.1679L220.737 32.9306Z" fill="#FAD11B"/>
<path d="M184.017 68.8715L178.78 73.0181L182.926 78.2553L188.164 74.1088L184.017 68.8715Z" fill="#FAD11B"/>
<path d="M198.369 108.139L196.788 114.629L203.278 116.21L204.859 109.72L198.369 108.139Z" fill="#F24465"/>
<path d="M128.714 -0.00491955L123.477 4.1416L127.624 9.37885L132.861 5.23232L128.714 -0.00491955Z" fill="#4A75FF"/>
<path d="M80.3399 56.1699L74.8799 52.3199C76.8799 49.4099 84.5699 39.8499 98.0199 38.8999C108.79 38.1299 117.41 44.2399 119.02 45.4699L115.02 50.7799C114.23 50.1799 107.08 44.9499 98.5299 45.5599C87.9999 46.2599 81.9999 53.8099 80.3799 56.0999L80.3399 56.1699Z" fill="#4A75FF"/>
<path d="M163.4 71.9C161.967 66.7376 161.967 61.2826 163.4 56.1203C164.833 50.958 167.645 46.2834 171.534 42.5983C175.422 38.9131 180.241 36.3565 185.473 35.2028C190.705 34.0492 196.152 34.342 201.23 36.05L199.1 42.38C195.171 41.0602 190.957 40.8349 186.909 41.7283C182.862 42.6217 179.134 44.6 176.126 47.4511C173.118 50.3022 170.942 53.9185 169.833 57.9121C168.724 61.9056 168.723 66.1258 169.83 70.12L163.4 71.9Z" fill="#F24465"/>
<path d="M169.91 99.8001L165.83 94.5101C166.17 94.2501 174.23 88.1701 190.12 86.8601C197.791 86.183 205.516 86.455 213.12 87.6701L215.21 87.9601L214.38 94.5801C213.7 94.5001 212.96 94.3901 212.17 94.2801C205.049 93.135 197.814 92.8764 190.63 93.5101C176.92 94.6401 170 99.7501 169.91 99.8001Z" fill="#4A75FF"/>
<path d="M94.7999 143.85C93.0731 142.188 91.6426 140.243 90.5699 138.1L87.4099 147.34C87.9999 148.03 88.6299 148.71 89.3099 149.34C92.0433 151.953 95.2194 154.059 98.6899 155.56L107.95 150.47C103.045 149.503 98.4978 147.214 94.7999 143.85Z" fill="#8429FB"/>
<path d="M122.75 94.4299C118.289 89.4382 114.38 83.98 111.09 78.1499L107.81 87.7399C110.519 91.8489 113.527 95.7527 116.81 99.4199C123.204 106.649 130.782 112.736 139.22 117.42C144.501 120.318 150.111 122.571 155.93 124.13L166.48 118.33C149.68 116.09 135 108.07 122.75 94.4299Z" fill="#8429FB"/>
<path d="M104.23 114.5C102.909 112.694 101.69 110.814 100.58 108.87L97.3601 118.28L97.7501 118.84C104.906 128.792 114.966 136.284 126.55 140.29L136.28 134.94C123.395 132.428 111.942 125.124 104.23 114.5Z" fill="#8429FB"/>
<path d="M139.78 45.2599C136.856 37.7882 132.649 30.8845 127.35 24.8599L122.52 29.4699C127.274 34.9635 131.052 41.2307 133.69 47.9999C137.622 57.663 139.153 68.1356 138.15 78.5199C140.15 80.3499 142.15 82.1799 144.15 83.9699C146.305 70.9034 144.789 57.495 139.77 45.2399L139.78 45.2599Z" fill="#F24465"/>
</g>
<defs>
<linearGradient id="paint0_linear" x1="212.7" y1="95.1701" x2="73.28" y2="294.28" gradientUnits="userSpaceOnUse">
<stop stop-color="#D1F0FF"/>
<stop offset="1" stop-color="#6FC8FC"/>
</linearGradient>
<clipPath id="clip0">
<rect width="285.63" height="279.23" fill="white"/>
</clipPath>
</defs>
</svg>
