<svg width="32" height="33" viewBox="0 0 32 33" fill="none" xmlns="http://www.w3.org/2000/svg">
<rect y="0.564941" width="32" height="32" rx="16" fill="#EFF2F6"/>
<path d="M19 16.5649C19 17.2587 18.9625 17.9274 18.8969 18.5649H13.1031C13.0344 17.9274 13 17.2587 13 16.5649C13 15.8712 13.0375 15.2024 13.1031 14.5649H18.8969C18.9656 15.2024 19 15.8712 19 16.5649ZM19.9 14.5649H23.7469C23.9125 15.2056 24 15.8743 24 16.5649C24 17.2556 23.9125 17.9243 23.7469 18.5649H19.9C19.9656 17.9212 20 17.2524 20 16.5649C20 15.8774 19.9656 15.2087 19.9 14.5649ZM23.4187 13.5649H19.7719C19.4594 11.5681 18.8406 9.89619 18.0437 8.82744C20.4906 9.47432 22.4812 11.2493 23.4156 13.5649H23.4187ZM18.7594 13.5649H13.2406C13.4313 12.4274 13.725 11.4212 14.0844 10.6056C14.4125 9.86807 14.7781 9.33369 15.1312 8.99619C15.4812 8.66494 15.7719 8.56494 16 8.56494C16.2281 8.56494 16.5187 8.66494 16.8687 8.99619C17.2219 9.33369 17.5875 9.86807 17.9156 10.6056C18.2781 11.4181 18.5687 12.4243 18.7594 13.5649ZM12.2281 13.5649H8.58125C9.51875 11.2493 11.5063 9.47432 13.9563 8.82744C13.1594 9.89619 12.5406 11.5681 12.2281 13.5649ZM8.25313 14.5649H12.1C12.0344 15.2087 12 15.8774 12 16.5649C12 17.2524 12.0344 17.9212 12.1 18.5649H8.25313C8.0875 17.9243 8 17.2556 8 16.5649C8 15.8743 8.0875 15.2056 8.25313 14.5649ZM14.0844 22.5212C13.7219 21.7087 13.4313 20.7024 13.2406 19.5649H18.7594C18.5687 20.7024 18.275 21.7087 17.9156 22.5212C17.5875 23.2587 17.2219 23.7931 16.8687 24.1306C16.5187 24.4649 16.2281 24.5649 16 24.5649C15.7719 24.5649 15.4812 24.4649 15.1312 24.1337C14.7781 23.7962 14.4125 23.2618 14.0844 22.5243V22.5212ZM12.2281 19.5649C12.5406 21.5618 13.1594 23.2337 13.9563 24.3024C11.5063 23.6556 9.51875 21.8806 8.58125 19.5649H12.2281ZM23.4187 19.5649C22.4812 21.8806 20.4937 23.6556 18.0469 24.3024C18.8438 23.2337 19.4594 21.5618 19.775 19.5649H23.4187Z" fill="#000850"/>
</svg>
