<svg width="14" height="15" viewBox="0 0 14 15" fill="none" xmlns="http://www.w3.org/2000/svg">
<path d="M1 3.565H2.33333H13" stroke="#E41C1C" stroke-linecap="round" stroke-linejoin="round"/>
<path d="M4.33301 3.56492V2.23159C4.33301 1.87797 4.47348 1.53883 4.72353 1.28878C4.97358 1.03873 5.31272 0.898254 5.66634 0.898254H8.33301C8.68663 0.898254 9.02577 1.03873 9.27582 1.28878C9.52587 1.53883 9.66634 1.87797 9.66634 2.23159V3.56492M11.6663 3.56492V12.8983C11.6663 13.2519 11.5259 13.591 11.2758 13.8411C11.0258 14.0911 10.6866 14.2316 10.333 14.2316H3.66634C3.31272 14.2316 2.97358 14.0911 2.72353 13.8411C2.47348 13.591 2.33301 13.2519 2.33301 12.8983V3.56492H11.6663Z" stroke="#E41C1C" stroke-linecap="round" stroke-linejoin="round"/>
<path d="M5.66699 6.89825V10.8983" stroke="#E41C1C" stroke-linecap="round" stroke-linejoin="round"/>
<path d="M8.33301 6.89825V10.8983" stroke="#E41C1C" stroke-linecap="round" stroke-linejoin="round"/>
</svg>
