<?xml version="1.0" encoding="UTF-8"?><svg id="Layer_1" xmlns="http://www.w3.org/2000/svg" width="248.5" height="302" viewBox="0 0 248.5 302"><defs><style>.cls-1,.cls-2{stroke-miterlimit:10;}.cls-1,.cls-2,.cls-3{fill:none;stroke:#000850;stroke-width:1.5px;}.cls-1,.cls-3{stroke-linecap:round;}.cls-4{fill:#000850;}.cls-5{fill:#eff2f6;}.cls-3{stroke-linejoin:round;}</style></defs><g><path class="cls-3" d="M242.75,123.58l4.6,10.72c.27,.62,.4,1.29,.4,1.97v159.97c0,2.76-2.24,5-5,5H17.02c-.84,0-1.66-.21-2.39-.61l-9.88-5.39"/><rect class="cls-1" x=".75" y="119.25" width="242" height="176" rx="5" ry="5"/><g><circle class="cls-1" cx="12.75" cy="132.75" r="2"/><circle class="cls-1" cx="19.75" cy="132.75" r="2"/><circle class="cls-1" cx="26.75" cy="132.75" r="2"/></g><g><line class="cls-1" x1="222.75" y1="128.75" x2="232.75" y2="128.75"/><line class="cls-1" x1="222.75" y1="132.75" x2="232.75" y2="132.75"/><line class="cls-1" x1="222.75" y1="136.75" x2="232.75" y2="136.75"/></g></g><rect class="cls-4" x=".75" y="147.75" width="242" height="119"/><polygon class="cls-4" points="247.75 276.75 242.75 266.75 242.75 147.75 247.75 157.75 247.75 276.75"/><g><polygon class="cls-5" points="82.18 202.72 70.62 202.72 70.62 212.62 56.39 212.62 79.54 180.8 66.69 180.8 41.75 214.35 41.75 222.59 70.24 222.59 70.24 233.7 82.18 233.7 82.18 222.59 90.8 222.59 90.8 212.62 82.18 212.62 82.18 202.72"/><path class="cls-5" d="M132.56,183.1c-3.4-2.14-7.29-3.21-11.68-3.21s-8.21,1.07-11.64,3.21c-3.43,2.14-6.12,5.25-8.09,9.33-1.97,4.08-2.95,9.02-2.95,14.81s.98,10.73,2.95,14.81,4.66,7.19,8.09,9.33c3.43,2.14,7.3,3.21,11.64,3.21s8.28-1.07,11.68-3.21c3.4-2.14,6.08-5.25,8.05-9.33s2.95-9.02,2.95-14.81-.98-10.73-2.95-14.81c-1.97-4.08-4.65-7.19-8.05-9.33Zm-2.64,33.9c-.88,2.52-2.09,4.36-3.63,5.52-1.54,1.16-3.34,1.74-5.4,1.74s-3.79-.58-5.33-1.74c-1.54-1.16-2.75-3-3.63-5.52-.88-2.52-1.32-5.77-1.32-9.75s.44-7.23,1.32-9.75,2.09-4.36,3.63-5.52c1.54-1.16,3.31-1.74,5.33-1.74s3.87,.58,5.4,1.74c1.54,1.16,2.75,3,3.63,5.52,.88,2.52,1.32,5.77,1.32,9.75s-.44,7.23-1.32,9.75Z"/><polygon class="cls-5" points="201.75 212.62 193.13 212.62 193.13 202.72 181.57 202.72 181.57 212.62 167.34 212.62 190.49 180.8 177.64 180.8 152.7 214.35 152.7 222.59 181.19 222.59 181.19 233.7 193.13 233.7 193.13 222.59 201.75 222.59 201.75 212.62"/></g><g><line class="cls-1" x1="128.25" y1="17.33" x2="191.78" y2="128.25"/><line class="cls-1" x1="52.36" y1="128.25" x2="119.25" y2="16.96"/><circle class="cls-1" cx="191.75" cy="128.75" r="3.5"/><circle class="cls-1" cx="52.25" cy="128.75" r="3.5"/><rect class="cls-2" x="119.25" y=".75" width="9" height="22" rx="4.5" ry="4.5"/><circle class="cls-2" cx="123.75" cy="5.25" r="4.5"/></g></svg>