<?xml version="1.0" encoding="UTF-8"?><svg id="Layer_1" xmlns="http://www.w3.org/2000/svg" width="248.5" height="301.99" viewBox="0 0 248.5 301.99"><defs><style>.cls-1,.cls-2{stroke-miterlimit:10;}.cls-1,.cls-2,.cls-3{fill:none;stroke:#000850;stroke-width:1.5px;}.cls-1,.cls-3{stroke-linecap:round;}.cls-4{fill:#000850;}.cls-3{stroke-linejoin:round;}</style></defs><g><path class="cls-3" d="M242.75,123.58l4.6,10.72c.27,.62,.4,1.29,.4,1.97v159.97c0,2.76-2.24,5-5,5H17.02c-.84,0-1.66-.21-2.39-.61l-9.88-5.39"/><rect class="cls-1" x=".75" y="119.25" width="242" height="176" rx="5" ry="5"/><g><circle class="cls-1" cx="12.75" cy="132.75" r="2"/><circle class="cls-1" cx="19.75" cy="132.75" r="2"/><circle class="cls-1" cx="26.75" cy="132.75" r="2"/></g><g><line class="cls-1" x1="222.75" y1="128.75" x2="232.75" y2="128.75"/><line class="cls-1" x1="222.75" y1="132.75" x2="232.75" y2="132.75"/><line class="cls-1" x1="222.75" y1="136.75" x2="232.75" y2="136.75"/></g></g><rect class="cls-4" x=".75" y="147.75" width="242" height="119"/><polygon class="cls-4" points="247.75 276.75 242.75 266.75 242.75 147.75 247.75 157.75 247.75 276.75"/><g><line class="cls-1" x1="128.25" y1="17.33" x2="191.78" y2="128.25"/><line class="cls-1" x1="52.36" y1="128.25" x2="119.25" y2="16.96"/><circle class="cls-1" cx="191.75" cy="128.75" r="3.5"/><circle class="cls-1" cx="52.25" cy="128.75" r="3.5"/><path class="cls-2" d="M123.75,.75h0c2.49,0,4.5,2.01,4.5,4.5v13c0,2.49-2.01,4.5-4.5,4.5h0c-2.49,0-4.5-2.01-4.5-4.5V5.25c0-2.49,2.01-4.5,4.5-4.5Z"/><circle class="cls-2" cx="123.75" cy="5.25" r="4.5"/></g></svg>