<?xml version="1.0" encoding="UTF-8"?><svg id="Layer_1" xmlns="http://www.w3.org/2000/svg" width="80" height="23.26" viewBox="0 0 80 23.26"><defs><style>.cls-1{fill:#000850;}</style></defs><path id="Path_4060" class="cls-1" d="M21.64,12.52c-.49-.49-.49-1.29,0-1.79l1.08-.9c.21-.18,.31-.47,.25-.74C21.57,2.82,15.36-1.12,9.09,.28,2.82,1.68-1.12,7.9,.28,14.17c1.4,6.27,7.62,10.21,13.88,8.81,4.39-.98,7.83-4.41,8.81-8.81,.06-.27-.03-.55-.25-.73l-1.09-.91Zm-9.89,7.93c-4.87,0-8.81-3.95-8.81-8.81,0-4.87,3.95-8.81,8.81-8.81,3.48,0,6.64,2.05,8.05,5.24,.09,.2,.04,.44-.13,.58l-1.14,.95c-.09,.07-.22,.08-.31,0l-2.74-2.26c-2.37-2.12-6.02-1.92-8.14,.45-2.12,2.37-1.92,6.02,.45,8.14,1.06,.95,2.43,1.47,3.85,1.47,1.62,0,2.98-.71,4.13-1.74l1.86-1.57c.1-.09,.11-.24,.03-.35,0-.01-.02-.02-.03-.03l-1.8-1.5c-.09-.08-.22-.08-.31,0l-2.34,1.94h0c-.58,.36-1.26,.5-1.93,.41-1.62-.21-2.76-1.7-2.54-3.31s1.7-2.76,3.31-2.54h0c.39,.05,.77,.18,1.11,.38h0s.2,.15,.24,.18h0l6.36,5.24c.17,.14,.22,.36,.14,.56-1.38,3.26-4.58,5.38-8.12,5.38Z"/><g><path class="cls-1" d="M33.84,6.55c1.55,0,2.8,.53,3.82,1.61l.04,.04,1.36-1.31-.04-.04c-1.25-1.41-3.07-2.16-5.26-2.16-2.04,0-3.9,.71-5.24,2-1.35,1.3-2.09,3.1-2.09,5.07s.74,3.78,2.09,5.07c1.34,1.29,3.2,2,5.23,2,2.16,0,4.03-.77,5.28-2.18l.04-.04-1.36-1.31-.04,.04c-1.02,1.08-2.31,1.63-3.82,1.63-3.09,0-5.34-2.19-5.34-5.22s2.24-5.22,5.33-5.22Z"/><path class="cls-1" d="M45.27,16.41l-3.59-8.23h-2.09l4.61,10.43-.32,.7c-.48,1.13-1.02,1.57-1.93,1.57-.69,0-1.33-.27-1.82-.75l-.05-.05-.86,1.52,.03,.03c.63,.61,1.64,.98,2.71,.98,1.78,0,2.9-.87,3.76-2.92l5.08-11.51h-1.97l-3.55,8.23Z"/><path class="cls-1" d="M74.55,8.08c-3.17,0-5.47,2.25-5.47,5.35s2.3,5.37,5.47,5.37h0c3.16,0,5.45-2.26,5.45-5.37s-2.29-5.35-5.45-5.35Zm-3.45,5.35c0-2.11,1.42-3.59,3.45-3.59s3.43,1.48,3.43,3.59-1.41,3.61-3.43,3.61h0c-2.03,0-3.45-1.48-3.45-3.61Z"/><path class="cls-1" d="M56.63,8.08c-3.17,0-5.47,2.25-5.47,5.35s2.3,5.37,5.47,5.37,5.45-2.26,5.45-5.37-2.29-5.35-5.45-5.35Zm3.43,5.35c0,2.13-1.41,3.61-3.43,3.61s-3.45-1.48-3.45-3.61,1.42-3.59,3.45-3.59,3.43,1.48,3.43,3.59Z"/><rect class="cls-1" x="64.57" y="4.02" width="2" height="14.66"/></g></svg>