<?xml version="1.0" encoding="UTF-8"?><svg id="Layer_1" xmlns="http://www.w3.org/2000/svg" width="97.76" height="81.5" viewBox="0 0 97.76 81.5"><defs><style>.cls-1,.cls-2{fill:#eff2f6;}.cls-2,.cls-3{stroke:#000850;stroke-linecap:round;stroke-linejoin:round;stroke-width:1.5px;}.cls-3{fill:none;}</style></defs><path class="cls-1" d="M43.77,70.99H12.46V8.55h31.31c6.63,0,12,5.37,12,12V58.99c0,6.63-5.37,12-12,12Z"/><line class="cls-3" x1="81.4" y1="31.97" x2="97.01" y2="31.97"/><path class="cls-3" d="M13.76,70.99h26.02c12.5,0,20.8-10.27,23.41-23.41"/><path class="cls-3" d="M65.14,37.82c0-17.53-10.39-29.27-25.37-29.27H13.76"/><line class="cls-3" x1="81.4" y1="47.58" x2="97.01" y2="47.58"/><path class="cls-3" d="M60.86,55.38h14.04c4.57,0,6.38-6.47,6.38-15.61,0-9.14-1.81-15.61-6.38-15.61h-11.71"/><line class="cls-3" x1="41.72" y1="45.63" x2="13.11" y2="45.63"/><line class="cls-3" x1="41.72" y1="33.92" x2="13.11" y2="33.92"/><rect class="cls-2" x=".75" y=".75" width="11.71" height="80" rx="5" ry="5"/></svg>