<?xml version="1.0" encoding="UTF-8"?><svg xmlns="http://www.w3.org/2000/svg" width="1935.77" height="1671.71" viewBox="0 0 1935.77 1671.71"><defs><style>.cls-1{border-radius:100%;animation-name:pulse;animation-duration:2s;animation-fill-mode:both;animation-timing-function:ease;animation-iteration-count:infinite;}@keyframes pulse{0%{outline:0 solid rgb(220 53 69 / .8)}70%{outline:10px solid #fff0}100%{outline:0 solid #fff0}}.cls-1,.cls-2,.cls-3,.cls-4,.cls-5,.cls-6,.cls-7,.cls-8,.cls-9,.cls-10{fill:none;}.cls-11{fill:#0d6efd;}.cls-12{fill:#198754;}.cls-2,.cls-5,.cls-6,.cls-7,.cls-8,.cls-9{stroke:#fff;}.cls-2,.cls-5,.cls-6,.cls-10{stroke-linecap:round;}.cls-2,.cls-5,.cls-7,.cls-8,.cls-9,.cls-10{stroke-width:2px;}.cls-3{stroke:#c4c8cb;}.cls-4,.cls-10{stroke:#dc3545;}.cls-5,.cls-6,.cls-7,.cls-10{stroke-linejoin:round;}.cls-13{fill:#fff;}.cls-6{stroke-width:2.5px;}.cls-14{fill:#dc3545;}.cls-15{fill:#474747;}.cls-15,.cls-16{font-family:Heebo-Regular, Heebo;font-size:13px;}.cls-17{fill:#0b2389;}.cls-9{stroke-miterlimit:10;}.cls-18{fill:#0dcaf0;}</style></defs><g id="idacs"><path class="cls-3" d="M1522.61,354.78l-255.5-210.3"/><path class="cls-3" d="M1533.8,396.25l-178.24,314.49"/><path class="cls-3" d="M1538.4,396.48l101.19,176"/><path class="cls-3" d="M1516.87,376.24l-177.88,35.2"/><path class="cls-3" d="M1550.73,368.99l254.49-224.41"/><path class="cls-3" d="M1533.82,369.51l208.95,48.17"/><line class="cls-3" x1="1538.4" y1="340.48" x2="1538.4" y2="180.49"/><path class="cls-3" d="M1380.76,1571.14l323.44-588.94"/><path class="cls-3" d="M1769.84,418.68l116.07,62.54"/><path class="cls-3" d="M1771.4,417.48l125.37-20.86"/><path class="cls-3" d="M1652.84,600.07l-6.8,131.67"/><path class="cls-3" d="M1654.08,599.14l133.82,49.58"/><path class="cls-3" d="M1654.59,600.96l72.54,104.35"/><path class="cls-3" d="M683.27,543.11l102.51-160.31"/><path class="cls-3" d="M678.27,558.11l49.04-209.24"/><path class="cls-3" d="M682.27,558.11l-18.04-229.5"/><path class="cls-3" d="M462.61,535.63l-30.32-212.76"/><path class="cls-3" d="M460.74,529.79l-108.02-179.86"/><path class="cls-3" d="M248.16,628.74l-47.07-183.26"/><path class="cls-3" d="M253.29,633.9l-107.47-130.29"/><path class="cls-3" d="M248.29,629.9l-153.35-63.26"/><path class="cls-3" d="M245.29,630.9l-179.93,9.98"/><path class="cls-3" d="M205.69,825.8l-167.24-79.6"/><path class="cls-3" d="M210.84,826.17l-171.61,1.81"/><path class="cls-3" d="M205.79,826.17l-163.5,85.5"/><path class="cls-3" d="M703.49,1130.99l-33.58,187.12"/><path class="cls-3" d="M703.49,1130.99l40.88,166.68"/><path class="cls-3" d="M703.49,1130.99l117.78,145.6"/><path class="cls-3" d="M849.68,927.23l130.35,152.64"/><path class="cls-3" d="M849.68,927.23l162.62,73.97"/><path class="cls-3" d="M849.68,927.23l182.86,2.64"/><path class="cls-3" d="M849.68,927.23l194.18-72.89"/><path class="cls-3" d="M849.68,927.23l194.99-152.95"/><path class="cls-3" d="M836.08,685.12l173.25-63.31"/><path class="cls-3" d="M836.08,685.12l133.04-132.25"/><path class="cls-3" d="M269.7,1020.27l-181.38,49.87"/><path class="cls-3" d="M269.7,1014.71l-112.46,149.74"/><path class="cls-3" d="M455.65,1147.64l-126.24,139.47"/><path class="cls-3" d="M455.65,1147.64l-55.71,178.48"/><path class="cls-3" d="M684.27,542.11l160.91-121.7"/><path class="cls-3" d="M1360.31,221.77l-132.12-16.81"/><path class="cls-3" d="M1360.31,221.77l-36.89-117.99"/><path class="cls-3" d="M1537.98,141.7l-59.13-106.72"/><path class="cls-3" d="M1538.53,142.27l59.1-105.79"/><path class="cls-3" d="M1715.66,222.69l35.76-137.34"/><path class="cls-3" d="M1717.66,223.69l132.9-13.27"/><path class="cls-3" d="M1306.69,411.42l-127.97-94.35"/><path class="cls-3" d="M1305.4,412.48l-136.07-13.86"/><path class="cls-3" d="M1305.69,413.68l-113.98,69.48"/><path class="cls-3" d="M1305.69,414.68l-83.99,139.74"/><path class="cls-3" d="M1418.93,599.17l-131.61,65.35"/><path class="cls-3" d="M1419.1,599.06l5.08,140.94"/><path class="cls-1" d="M1258.11,118.48h0c10.49,0,19,8.51,19,19h0c0,10.49-8.51,19-19,19h0c-10.49,0-19-8.51-19-19h0c0-10.49,8.51-19,19-19Z"/><path class="cls-14" d="M1258.11,117.48h0c11.05,0,20,8.95,20,20h0c0,11.05-8.95,20-20,20h0c-11.05,0-20-8.95-20-20h0c0-11.05,8.95-20,20-20Z"/><rect class="cls-8" x="1248.99" y="129.48" width="18" height="12" rx="2" ry="2"/><line class="cls-2" x1="1249.11" y1="144.48" x2="1267.11" y2="144.48"/><path class="cls-13" d="M1246.11,145.98h0c4.14,0,7.5,3.36,7.5,7.5h0c0,4.14-3.36,7.5-7.5,7.5h0c-4.14,0-7.5-3.36-7.5-7.5h0c0-4.14,3.36-7.5,7.5-7.5Z"/><path class="cls-4" d="M1246.11,145.98h0c4.14,0,7.5,3.36,7.5,7.5h0c0,4.14-3.36,7.5-7.5,7.5h0c-4.14,0-7.5-3.36-7.5-7.5h0c0-4.14,3.36-7.5,7.5-7.5Z"/><path class="cls-10" d="M1246.11,149.48v4"/><path class="cls-14" d="M1246.11,157.79c-.55,0-1-.45-1-1s.44-1,1-1,1,.45,1,1-.45,1-1,1Z"/><text class="cls-16" transform="translate(1243.86 178.24)"><tspan x="0" y="0">IDAC</tspan></text><path class="cls-12" d="M1209.19,184.96h0c11.05,0,20,8.95,20,20h0c0,11.05-8.95,20-20,20h0c-11.05,0-20-8.95-20-20h0c0-11.05,8.95-20,20-20Z"/><rect class="cls-8" x="1200.06" y="196.96" width="18" height="12" rx="2" ry="2"/><line class="cls-2" x1="1200.19" y1="211.96" x2="1218.19" y2="211.96"/><text class="cls-16" transform="translate(1194.93 245.72)"><tspan x="0" y="0">IDAC</tspan></text><path class="cls-12" d="M1169.72,290.07h0c11.05,0,20,8.95,20,20h0c0,11.05-8.95,20-20,20h0c-11.05,0-20-8.95-20-20h0c0-11.05,8.95-20,20-20Z"/><rect class="cls-8" x="1160.59" y="302.07" width="18" height="12" rx="2" ry="2"/><line class="cls-2" x1="1160.72" y1="317.07" x2="1178.72" y2="317.07"/><text class="cls-16" transform="translate(1155.46 350.83)"><tspan x="0" y="0">IDAC</tspan></text><path class="cls-12" d="M1160.46,376.61h0c11.05,0,20,8.95,20,20h0c0,11.05-8.95,20-20,20h0c-11.05,0-20-8.95-20-20h0c0-11.05,8.95-20,20-20Z"/><rect class="cls-8" x="1151.33" y="388.61" width="18" height="12" rx="2" ry="2"/><line class="cls-2" x1="1151.46" y1="403.61" x2="1169.46" y2="403.61"/><text class="cls-16" transform="translate(1146.2 437.37)"><tspan x="0" y="0">IDAC</tspan></text><path class="cls-12" d="M1172.71,463.16h0c11.05,0,20,8.95,20,20h0c0,11.05-8.95,20-20,20h0c-11.05,0-20-8.95-20-20h0c0-11.05,8.95-20,20-20Z"/><rect class="cls-8" x="1163.58" y="475.16" width="18" height="12" rx="2" ry="2"/><line class="cls-2" x1="1163.71" y1="490.16" x2="1181.71" y2="490.16"/><text class="cls-16" transform="translate(1158.45 523.92)"><tspan x="0" y="0">IDAC</tspan></text><path class="cls-12" d="M1915.77,376.61h0c11.05,0,20,8.95,20,20h0c0,11.05-8.95,20-20,20h0c-11.05,0-20-8.95-20-20h0c0-11.05,8.95-20,20-20Z"/><rect class="cls-8" x="1906.64" y="388.61" width="18" height="12" rx="2" ry="2"/><line class="cls-2" x1="1906.77" y1="403.61" x2="1924.77" y2="403.61"/><text class="cls-16" transform="translate(1901.51 437.37)"><tspan x="0" y="0">IDAC</tspan></text><path class="cls-12" d="M1904.02,463.16h0c11.05,0,20,8.95,20,20h0c0,11.05-8.95,20-20,20h0c-11.05,0-20-8.95-20-20h0c0-11.05,8.95-20,20-20Z"/><rect class="cls-8" x="1894.89" y="475.16" width="18" height="12" rx="2" ry="2"/><line class="cls-2" x1="1895.02" y1="490.16" x2="1913.02" y2="490.16"/><text class="cls-16" transform="translate(1889.76 523.92)"><tspan x="0" y="0">IDAC</tspan></text><path class="cls-12" d="M1203.39,542.41h0c11.05,0,20,8.95,20,20h0c0,11.05-8.95,20-20,20h0c-11.05,0-20-8.95-20-20h0c0-11.05,8.95-20,20-20Z"/><rect class="cls-8" x="1194.26" y="554.41" width="18" height="12" rx="2" ry="2"/><line class="cls-2" x1="1194.39" y1="569.41" x2="1212.39" y2="569.41"/><text class="cls-16" transform="translate(1189.13 603.17)"><tspan x="0" y="0">IDAC</tspan></text><path class="cls-12" d="M1318.79,65.35h0c11.05,0,20,8.95,20,20h0c0,11.05-8.95,20-20,20h0c-11.05,0-20-8.95-20-20h0c0-11.05,8.95-20,20-20Z"/><rect class="cls-8" x="1309.67" y="77.35" width="18" height="12" rx="2" ry="2"/><line class="cls-2" x1="1309.79" y1="92.35" x2="1327.79" y2="92.35"/><text class="cls-16" transform="translate(1304.54 126.11)"><tspan x="0" y="0">IDAC</tspan></text><path class="cls-12" d="M1472.79,0h0c11.05,0,20,8.95,20,20h0c0,11.05-8.95,20-20,20h0c-11.05,0-20-8.95-20-20h0c0-11.05,8.95-20,20-20Z"/><rect class="cls-8" x="1463.66" y="12" width="18" height="12" rx="2" ry="2"/><line class="cls-2" x1="1463.79" y1="27" x2="1481.79" y2="27"/><text class="cls-16" transform="translate(1458.53 60.76)"><tspan x="0" y="0">IDAC</tspan></text><path class="cls-12" d="M1603.5,0h0c11.05,0,20,8.95,20,20h0c0,11.05-8.95,20-20,20h0c-11.05,0-20-8.95-20-20h0c0-11.05,8.95-20,20-20Z"/><rect class="cls-8" x="1594.38" y="12" width="18" height="12" rx="2" ry="2"/><line class="cls-2" x1="1594.5" y1="27" x2="1612.5" y2="27"/><text class="cls-16" transform="translate(1589.25 60.76)"><tspan x="0" y="0">IDAC</tspan></text><path class="cls-12" d="M1648.38,726.98h0c11.05,0,20,8.95,20,20h0c0,11.05-8.95,20-20,20h0c-11.05,0-20-8.95-20-20h0c0-11.05,8.95-20,20-20Z"/><rect class="cls-8" x="1639.25" y="738.98" width="18" height="12" rx="2" ry="2"/><line class="cls-2" x1="1639.38" y1="753.98" x2="1657.38" y2="753.98"/><text class="cls-16" transform="translate(1634.12 787.74)"><tspan x="0" y="0">IDAC</tspan></text><path class="cls-12" d="M1732.34,692.74h0c11.05,0,20,8.95,20,20h0c0,11.05-8.95,20-20,20h0c-11.05,0-20-8.95-20-20h0c0-11.05,8.95-20,20-20Z"/><rect class="cls-8" x="1723.21" y="704.74" width="18" height="12" rx="2" ry="2"/><line class="cls-2" x1="1723.34" y1="719.74" x2="1741.34" y2="719.74"/><text class="cls-16" transform="translate(1718.08 753.5)"><tspan x="0" y="0">IDAC</tspan></text><path class="cls-12" d="M1804.35,634.85h0c11.05,0,20,8.95,20,20h0c0,11.05-8.95,20-20,20h0c-11.05,0-20-8.95-20-20h0c0-11.05,8.95-20,20-20Z"/><rect class="cls-8" x="1795.22" y="646.85" width="18" height="12" rx="2" ry="2"/><line class="cls-2" x1="1795.35" y1="661.85" x2="1813.35" y2="661.85"/><text class="cls-16" transform="translate(1790.09 695.61)"><tspan x="0" y="0">IDAC</tspan></text><path class="cls-12" d="M1425.04,739.98h0c11.05,0,20,8.95,20,20h0c0,11.05-8.95,20-20,20h0c-11.05,0-20-8.95-20-20h0c0-11.05,8.95-20,20-20Z"/><rect class="cls-8" x="1415.91" y="751.98" width="18" height="12" rx="2" ry="2"/><line class="cls-2" x1="1416.04" y1="766.98" x2="1434.04" y2="766.98"/><text class="cls-16" transform="translate(1410.78 800.74)"><tspan x="0" y="0">IDAC</tspan></text><path class="cls-12" d="M143.26,1146.07h0c11.05,0,20,8.95,20,20h0c0,11.05-8.95,20-20,20h0c-11.05,0-20-8.95-20-20h0c0-11.05,8.95-20,20-20Z"/><rect class="cls-8" x="134.13" y="1158.07" width="18" height="12" rx="2" ry="2"/><line class="cls-2" x1="134.26" y1="1173.07" x2="152.26" y2="1173.07"/><text class="cls-16" transform="translate(129 1206.83)"><tspan x="0" y="0">IDAC</tspan></text><path class="cls-12" d="M391.9,1308.87h0c11.05,0,20,8.95,20,20h0c0,11.05-8.95,20-20,20h0c-11.05,0-20-8.95-20-20h0c0-11.05,8.95-20,20-20Z"/><rect class="cls-8" x="382.77" y="1320.87" width="18" height="12" rx="2" ry="2"/><line class="cls-2" x1="382.9" y1="1335.87" x2="400.9" y2="1335.87"/><text class="cls-16" transform="translate(377.64 1369.63)"><tspan x="0" y="0">IDAC</tspan></text><path class="cls-12" d="M320.42,1282.28h0c11.05,0,20,8.95,20,20h0c0,11.05-8.95,20-20,20h0c-11.05,0-20-8.95-20-20h0c0-11.05,8.95-20,20-20Z"/><rect class="cls-8" x="311.29" y="1294.28" width="18" height="12" rx="2" ry="2"/><line class="cls-2" x1="311.42" y1="1309.28" x2="329.42" y2="1309.28"/><text class="cls-16" transform="translate(306.16 1343.04)"><tspan x="0" y="0">IDAC</tspan></text><path class="cls-3" d="M455.65,1147.64l22.77,165.64"/><path class="cls-12" d="M478.42,1312.28h0c11.05,0,20,8.95,20,20h0c0,11.05-8.95,20-20,20h0c-11.05,0-20-8.95-20-20h0c0-11.05,8.95-20,20-20Z"/><rect class="cls-8" x="469.29" y="1324.28" width="18" height="12" rx="2" ry="2"/><line class="cls-2" x1="469.42" y1="1339.28" x2="487.42" y2="1339.28"/><text class="cls-16" transform="translate(464.16 1373.04)"><tspan x="0" y="0">IDAC</tspan></text><path class="cls-12" d="M79.44,1050.58h0c11.05,0,20,8.95,20,20h0c0,11.05-8.95,20-20,20h0c-11.05,0-20-8.95-20-20h0c0-11.05,8.95-20,20-20Z"/><rect class="cls-8" x="70.31" y="1062.58" width="18" height="12" rx="2" ry="2"/><line class="cls-2" x1="70.44" y1="1077.58" x2="88.44" y2="1077.58"/><text class="cls-16" transform="translate(65.18 1111.34)"><tspan x="0" y="0">IDAC</tspan></text><path class="cls-12" d="M20,808.36h0c11.05,0,20,8.95,20,20h0c0,11.05-8.95,20-20,20h0c-11.05,0-20-8.95-20-20h0c0-11.05,8.95-20,20-20Z"/><rect class="cls-8" x="10.88" y="820.36" width="18" height="12" rx="2" ry="2"/><line class="cls-2" x1="11" y1="835.36" x2="29" y2="835.36"/><text class="cls-16" transform="translate(5.74 869.12)"><tspan x="0" y="0">IDAC</tspan></text><path class="cls-12" d="M27.3,723.83h0c11.05,0,20,8.95,20,20h0c0,11.05-8.95,20-20,20h0c-11.05,0-20-8.95-20-20h0c0-11.05,8.95-20,20-20Z"/><rect class="cls-8" x="18.18" y="735.83" width="18" height="12" rx="2" ry="2"/><line class="cls-2" x1="18.3" y1="750.83" x2="36.3" y2="750.83"/><text class="cls-16" transform="translate(13.04 784.58)"><tspan x="0" y="0">IDAC</tspan></text><path class="cls-12" d="M56.48,618.87h0c11.05,0,20,8.95,20,20h0c0,11.05-8.95,20-20,20h0c-11.05,0-20-8.95-20-20h0c0-11.05,8.95-20,20-20Z"/><rect class="cls-8" x="47.35" y="630.87" width="18" height="12" rx="2" ry="2"/><line class="cls-2" x1="47.48" y1="645.87" x2="65.48" y2="645.87"/><text class="cls-16" transform="translate(42.22 679.63)"><tspan x="0" y="0">IDAC</tspan></text><path class="cls-12" d="M91.68,545.87h0c11.05,0,20,8.95,20,20h0c0,11.05-8.95,20-20,20h0c-11.05,0-20-8.95-20-20h0c0-11.05,8.95-20,20-20Z"/><rect class="cls-8" x="82.56" y="557.87" width="18" height="12" rx="2" ry="2"/><line class="cls-2" x1="82.68" y1="572.87" x2="100.68" y2="572.87"/><text class="cls-16" transform="translate(77.43 606.63)"><tspan x="0" y="0">IDAC</tspan></text><path class="cls-12" d="M138.94,479.6h0c11.05,0,20,8.95,20,20h0c0,11.05-8.95,20-20,20h0c-11.05,0-20-8.95-20-20h0c0-11.05,8.95-20,20-20Z"/><rect class="cls-8" x="129.82" y="491.6" width="18" height="12" rx="2" ry="2"/><line class="cls-2" x1="129.94" y1="506.6" x2="147.94" y2="506.6"/><text class="cls-16" transform="translate(124.69 540.36)"><tspan x="0" y="0">IDAC</tspan></text><path class="cls-12" d="M194.21,421.48h0c11.05,0,20,8.95,20,20h0c0,11.05-8.95,20-20,20h0c-11.05,0-20-8.95-20-20h0c0-11.05,8.95-20,20-20Z"/><rect class="cls-8" x="185.09" y="433.48" width="18" height="12" rx="2" ry="2"/><line class="cls-2" x1="185.21" y1="448.48" x2="203.21" y2="448.48"/><text class="cls-16" transform="translate(179.95 482.24)"><tspan x="0" y="0">IDAC</tspan></text><path class="cls-12" d="M343.85,327.94h0c11.05,0,20,8.95,20,20h0c0,11.05-8.95,20-20,20h0c-11.05,0-20-8.95-20-20h0c0-11.05,8.95-20,20-20Z"/><rect class="cls-8" x="334.72" y="339.94" width="18" height="12" rx="2" ry="2"/><line class="cls-2" x1="334.85" y1="354.94" x2="352.85" y2="354.94"/><text class="cls-16" transform="translate(329.59 388.7)"><tspan x="0" y="0">IDAC</tspan></text><path class="cls-12" d="M439.42,298.87h0c11.05,0,20,8.95,20,20h0c0,11.05-8.95,20-20,20h0c-11.05,0-20-8.95-20-20h0c0-11.05,8.95-20,20-20Z"/><rect class="cls-8" x="430.29" y="310.87" width="18" height="12" rx="2" ry="2"/><line class="cls-2" x1="430.42" y1="325.87" x2="448.42" y2="325.87"/><text class="cls-16" transform="translate(425.16 359.63)"><tspan x="0" y="0">IDAC</tspan></text><path class="cls-12" d="M665.35,304.62h0c11.05,0,20,8.95,20,20h0c0,11.05-8.95,20-20,20h0c-11.05,0-20-8.95-20-20h0c0-11.05,8.95-20,20-20Z"/><rect class="cls-8" x="656.22" y="316.62" width="18" height="12" rx="2" ry="2"/><line class="cls-2" x1="656.35" y1="331.62" x2="674.35" y2="331.62"/><text class="cls-16" transform="translate(651.09 365.37)"><tspan x="0" y="0">IDAC</tspan></text><path class="cls-12" d="M732.43,324.87h0c11.05,0,20,8.95,20,20h0c0,11.05-8.95,20-20,20h0c-11.05,0-20-8.95-20-20h0c0-11.05,8.95-20,20-20Z"/><rect class="cls-8" x="723.31" y="336.87" width="18" height="12" rx="2" ry="2"/><line class="cls-2" x1="723.43" y1="351.87" x2="741.43" y2="351.87"/><text class="cls-16" transform="translate(718.18 385.63)"><tspan x="0" y="0">IDAC</tspan></text><path class="cls-12" d="M794.78,355.81h0c11.05,0,20,8.95,20,20h0c0,11.05-8.95,20-20,20h0c-11.05,0-20-8.95-20-20h0c0-11.05,8.95-20,20-20Z"/><rect class="cls-8" x="785.65" y="367.81" width="18" height="12" rx="2" ry="2"/><line class="cls-2" x1="785.78" y1="382.81" x2="803.78" y2="382.81"/><text class="cls-16" transform="translate(780.52 416.57)"><tspan x="0" y="0">IDAC</tspan></text><path class="cls-12" d="M854.18,393.41h0c11.05,0,20,8.95,20,20h0c0,11.05-8.95,20-20,20h0c-11.05,0-20-8.95-20-20h0c0-11.05,8.95-20,20-20Z"/><rect class="cls-8" x="845.05" y="405.41" width="18" height="12" rx="2" ry="2"/><line class="cls-2" x1="845.18" y1="420.41" x2="863.18" y2="420.41"/><text class="cls-16" transform="translate(839.92 454.17)"><tspan x="0" y="0">IDAC</tspan></text><path class="cls-12" d="M978.12,525.87h0c11.05,0,20,8.95,20,20h0c0,11.05-8.95,20-20,20h0c-11.05,0-20-8.95-20-20h0c0-11.05,8.95-20,20-20Z"/><rect class="cls-8" x="969" y="537.87" width="18" height="12" rx="2" ry="2"/><line class="cls-2" x1="969.12" y1="552.87" x2="987.12" y2="552.87"/><text class="cls-16" transform="translate(963.87 586.63)"><tspan x="0" y="0">IDAC</tspan></text><path class="cls-12" d="M1018.46,599.81h0c11.05,0,20,8.95,20,20h0c0,11.05-8.95,20-20,20h0c-11.05,0-20-8.95-20-20h0c0-11.05,8.95-20,20-20Z"/><rect class="cls-8" x="1009.34" y="611.81" width="18" height="12" rx="2" ry="2"/><line class="cls-2" x1="1009.46" y1="626.81" x2="1027.46" y2="626.81"/><text class="cls-16" transform="translate(1004.2 660.57)"><tspan x="0" y="0">IDAC</tspan></text><path class="cls-12" d="M1062.85,829.33h0c11.05,0,20,8.95,20,20h0c0,11.05-8.95,20-20,20h0c-11.05,0-20-8.95-20-20h0c0-11.05,8.95-20,20-20Z"/><rect class="cls-8" x="1053.73" y="841.33" width="18" height="12" rx="2" ry="2"/><line class="cls-2" x1="1053.85" y1="856.33" x2="1071.85" y2="856.33"/><text class="cls-16" transform="translate(1048.6 890.09)"><tspan x="0" y="0">IDAC</tspan></text><path class="cls-12" d="M1059.07,752.87h0c11.05,0,20,8.95,20,20h0c0,11.05-8.95,20-20,20h0c-11.05,0-20-8.95-20-20h0c0-11.05,8.95-20,20-20Z"/><rect class="cls-8" x="1049.94" y="764.87" width="18" height="12" rx="2" ry="2"/><line class="cls-2" x1="1050.07" y1="779.87" x2="1068.07" y2="779.87"/><text class="cls-16" transform="translate(1044.81 813.63)"><tspan x="0" y="0">IDAC</tspan></text><path class="cls-12" d="M1051.54,909.87h0c11.05,0,20,8.95,20,20h0c0,11.05-8.95,20-20,20h0c-11.05,0-20-8.95-20-20h0c0-11.05,8.95-20,20-20Z"/><rect class="cls-8" x="1042.42" y="921.87" width="18" height="12" rx="2" ry="2"/><line class="cls-2" x1="1042.54" y1="936.87" x2="1060.54" y2="936.87"/><text class="cls-16" transform="translate(1037.28 970.63)"><tspan x="0" y="0">IDAC</tspan></text><path class="cls-12" d="M1028.75,992.57h0c11.05,0,20,8.95,20,20h0c0,11.05-8.95,20-20,20h0c-11.05,0-20-8.95-20-20h0c0-11.05,8.95-20,20-20Z"/><rect class="cls-8" x="1019.62" y="1004.57" width="18" height="12" rx="2" ry="2"/><line class="cls-2" x1="1019.75" y1="1019.57" x2="1037.75" y2="1019.57"/><text class="cls-16" transform="translate(1014.49 1053.33)"><tspan x="0" y="0">IDAC</tspan></text><path class="cls-12" d="M993.55,1067.87h0c11.05,0,20,8.95,20,20h0c0,11.05-8.95,20-20,20h0c-11.05,0-20-8.95-20-20h0c0-11.05,8.95-20,20-20Z"/><rect class="cls-8" x="984.42" y="1079.87" width="18" height="12" rx="2" ry="2"/><line class="cls-2" x1="984.55" y1="1094.87" x2="1002.55" y2="1094.87"/><text class="cls-16" transform="translate(979.29 1128.63)"><tspan x="0" y="0">IDAC</tspan></text><path class="cls-12" d="M819,1252.97h0c11.05,0,20,8.95,20,20h0c0,11.05-8.95,20-20,20h0c-11.05,0-20-8.95-20-20h0c0-11.05,8.95-20,20-20Z"/><rect class="cls-8" x="809.87" y="1264.97" width="18" height="12" rx="2" ry="2"/><line class="cls-2" x1="810" y1="1279.97" x2="828" y2="1279.97"/><text class="cls-16" transform="translate(804.74 1313.72)"><tspan x="0" y="0">IDAC</tspan></text><path class="cls-12" d="M749.48,1287.03h0c11.05,0,20,8.95,20,20h0c0,11.05-8.95,20-20,20h0c-11.05,0-20-8.95-20-20h0c0-11.05,8.95-20,20-20Z"/><rect class="cls-8" x="740.36" y="1299.03" width="18" height="12" rx="2" ry="2"/><line class="cls-2" x1="740.48" y1="1314.03" x2="758.48" y2="1314.03"/><text class="cls-16" transform="translate(735.23 1347.79)"><tspan x="0" y="0">IDAC</tspan></text><path class="cls-12" d="M670.78,1313.34h0c11.05,0,20,8.95,20,20h0c0,11.05-8.95,20-20,20h0c-11.05,0-20-8.95-20-20h0c0-11.05,8.95-20,20-20Z"/><rect class="cls-8" x="661.65" y="1325.34" width="18" height="12" rx="2" ry="2"/><line class="cls-2" x1="661.78" y1="1340.34" x2="679.78" y2="1340.34"/><text class="cls-16" transform="translate(656.52 1374.1)"><tspan x="0" y="0">IDAC</tspan></text><path class="cls-12" d="M27.8,896.9h0c11.05,0,20,8.95,20,20h0c0,11.05-8.95,20-20,20h0c-11.05,0-20-8.95-20-20h0c0-11.05,8.95-20,20-20Z"/><rect class="cls-8" x="18.67" y="908.9" width="18" height="12" rx="2" ry="2"/><line class="cls-2" x1="18.8" y1="923.9" x2="36.8" y2="923.9"/><text class="cls-16" transform="translate(13.54 957.66)"><tspan x="0" y="0">IDAC</tspan></text><path class="cls-12" d="M1344,705.74h0c11.05,0,20,8.95,20,20h0c0,11.05-8.95,20-20,20h0c-11.05,0-20-8.95-20-20h0c0-11.05,8.95-20,20-20Z"/><rect class="cls-8" x="1334.88" y="717.74" width="18" height="12" rx="2" ry="2"/><line class="cls-2" x1="1335" y1="732.74" x2="1353" y2="732.74"/><text class="cls-16" transform="translate(1329.74 766.5)"><tspan x="0" y="0">IDAC</tspan></text><path class="cls-12" d="M1274.01,647.85h0c11.05,0,20,8.95,20,20h0c0,11.05-8.95,20-20,20h0c-11.05,0-20-8.95-20-20h0c0-11.05,8.95-20,20-20Z"/><rect class="cls-8" x="1264.88" y="659.85" width="18" height="12" rx="2" ry="2"/><line class="cls-2" x1="1265.01" y1="674.85" x2="1283.01" y2="674.85"/><text class="cls-16" transform="translate(1259.75 708.61)"><tspan x="0" y="0">IDAC</tspan></text><path class="cls-12" d="M1821.22,112.41h0c11.05,0,20,8.95,20,20h0c0,11.05-8.95,20-20,20h0c-11.05,0-20-8.95-20-20h0c0-11.05,8.95-20,20-20Z"/><rect class="cls-8" x="1812.1" y="124.41" width="18" height="12" rx="2" ry="2"/><line class="cls-2" x1="1812.22" y1="139.41" x2="1830.22" y2="139.41"/><text class="cls-16" transform="translate(1806.96 173.17)"><tspan x="0" y="0">IDAC</tspan></text><path class="cls-12" d="M1757.73,49.29h0c11.05,0,20,8.95,20,20h0c0,11.05-8.95,20-20,20h0c-11.05,0-20-8.95-20-20h0c0-11.05,8.95-20,20-20Z"/><rect class="cls-8" x="1748.61" y="61.29" width="18" height="12" rx="2" ry="2"/><line class="cls-2" x1="1748.73" y1="76.29" x2="1766.73" y2="76.29"/><text class="cls-16" transform="translate(1743.48 110.05)"><tspan x="0" y="0">IDAC</tspan></text><path class="cls-12" d="M1869.56,190.41h0c11.05,0,20,8.95,20,20h0c0,11.05-8.95,20-20,20h0c-11.05,0-20-8.95-20-20h0c0-11.05,8.95-20,20-20Z"/><rect class="cls-8" x="1860.43" y="202.41" width="18" height="12" rx="2" ry="2"/><line class="cls-2" x1="1860.56" y1="217.41" x2="1878.56" y2="217.41"/><text class="cls-16" transform="translate(1855.3 251.17)"><tspan x="0" y="0">IDAC</tspan></text><path class="cls-3" d="M1653.84,1463.68l-57.11,144.91"/><path class="cls-3" d="M1653.08,1462.75l110.5,59.94"/><path class="cls-3" d="M1653.84,1462.68l8.8,125.51"/><path class="cls-3" d="M1653.58,1463.68l159.52,10.85"/><path class="cls-3" d="M1716.02,1560.04l-358.91-557.95"/><path class="cls-3" d="M1637.49,1101.32l-13.24-146.34"/><path class="cls-3" d="M1637.49,1101.32l-103.43-152.02"/><path class="cls-3" d="M1638.49,1102.32l128.72-68.21"/><path class="cls-3" d="M1639.49,1102.32l173.6-5.38"/><path class="cls-3" d="M1438.93,1465.79l-128.27,68.51"/><path class="cls-3" d="M1438.93,1465.79l-176.89,14.56"/><path class="cls-3" d="M1439.1,1465.67l-3.26,132.92"/><path class="cls-12" d="M1666.25,1586.43h0c11.05,0,20,8.95,20,20h0c0,11.05-8.95,20-20,20h0c-11.05,0-20-8.95-20-20h0c0-11.05,8.95-20,20-20Z"/><rect class="cls-8" x="1657.13" y="1598.43" width="18" height="12" rx="2" ry="2"/><line class="cls-2" x1="1657.25" y1="1613.43" x2="1675.25" y2="1613.43"/><text class="cls-16" transform="translate(1651.99 1647.19)"><tspan x="0" y="0">IDAC</tspan></text><path class="cls-12" d="M1594.4,1606.59h0c11.05,0,20,8.95,20,20h0c0,11.05-8.95,20-20,20h0c-11.05,0-20-8.95-20-20h0c0-11.05,8.95-20,20-20Z"/><rect class="cls-8" x="1585.28" y="1618.59" width="18" height="12" rx="2" ry="2"/><line class="cls-2" x1="1585.4" y1="1633.59" x2="1603.4" y2="1633.59"/><text class="cls-16" transform="translate(1580.14 1667.35)"><tspan x="0" y="0">IDAC</tspan></text><path class="cls-12" d="M1725.64,1556.05h0c11.05,0,20,8.95,20,20h0c0,11.05-8.95,20-20,20h0c-11.05,0-20-8.95-20-20h0c0-11.05,8.95-20,20-20Z"/><rect class="cls-8" x="1716.52" y="1568.05" width="18" height="12" rx="2" ry="2"/><line class="cls-2" x1="1716.64" y1="1583.05" x2="1734.64" y2="1583.05"/><text class="cls-16" transform="translate(1711.39 1616.81)"><tspan x="0" y="0">IDAC</tspan></text><path class="cls-12" d="M1781.13,1512.29h0c11.05,0,20,8.95,20,20h0c0,11.05-8.95,20-20,20h0c-11.05,0-20-8.95-20-20h0c0-11.05,8.95-20,20-20Z"/><rect class="cls-8" x="1772" y="1524.29" width="18" height="12" rx="2" ry="2"/><line class="cls-2" x1="1772.13" y1="1539.29" x2="1790.13" y2="1539.29"/><text class="cls-16" transform="translate(1766.87 1573.05)"><tspan x="0" y="0">IDAC</tspan></text><path class="cls-12" d="M1826.11,1458.37h0c11.05,0,20,8.95,20,20h0c0,11.05-8.95,20-20,20h0c-11.05,0-20-8.95-20-20h0c0-11.05,8.95-20,20-20Z"/><rect class="cls-8" x="1816.99" y="1470.37" width="18" height="12" rx="2" ry="2"/><line class="cls-2" x1="1817.11" y1="1485.37" x2="1835.11" y2="1485.37"/><text class="cls-16" transform="translate(1811.85 1519.13)"><tspan x="0" y="0">IDAC</tspan></text><path class="cls-12" d="M1435.84,1598.59h0c11.05,0,20,8.95,20,20h0c0,11.05-8.95,20-20,20h0c-11.05,0-20-8.95-20-20h0c0-11.05,8.95-20,20-20Z"/><rect class="cls-8" x="1426.72" y="1610.59" width="18" height="12" rx="2" ry="2"/><line class="cls-2" x1="1426.84" y1="1625.59" x2="1444.84" y2="1625.59"/><text class="cls-16" transform="translate(1421.59 1659.35)"><tspan x="0" y="0">IDAC</tspan></text><path class="cls-12" d="M1370.25,1568.09h0c11.05,0,20,8.95,20,20h0c0,11.05-8.95,20-20,20h0c-11.05,0-20-8.95-20-20h0c0-11.05,8.95-20,20-20Z"/><rect class="cls-8" x="1361.12" y="1580.09" width="18" height="12" rx="2" ry="2"/><line class="cls-2" x1="1361.25" y1="1595.09" x2="1379.25" y2="1595.09"/><text class="cls-16" transform="translate(1355.99 1628.85)"><tspan x="0" y="0">IDAC</tspan></text><path class="cls-12" d="M1301.79,1520.29h0c11.05,0,20,8.95,20,20h0c0,11.05-8.95,20-20,20h0c-11.05,0-20-8.95-20-20h0c0-11.05,8.95-20,20-20Z"/><rect class="cls-8" x="1292.66" y="1532.29" width="18" height="12" rx="2" ry="2"/><line class="cls-2" x1="1292.79" y1="1547.29" x2="1310.79" y2="1547.29"/><text class="cls-16" transform="translate(1287.53 1581.05)"><tspan x="0" y="0">IDAC</tspan></text><path class="cls-12" d="M1250.25,1462.35h0c11.05,0,20,8.95,20,20h0c0,11.05-8.95,20-20,20h0c-11.05,0-20-8.95-20-20h0c0-11.05,8.95-20,20-20Z"/><rect class="cls-8" x="1241.12" y="1474.35" width="18" height="12" rx="2" ry="2"/><line class="cls-2" x1="1241.25" y1="1489.35" x2="1259.25" y2="1489.35"/><text class="cls-16" transform="translate(1235.99 1523.1)"><tspan x="0" y="0">IDAC</tspan></text><path class="cls-12" d="M1621.25,923.82h0c11.05,0,20,8.95,20,20h0c0,11.05-8.95,20-20,20h0c-11.05,0-20-8.95-20-20h0c0-11.05,8.95-20,20-20Z"/><rect class="cls-8" x="1612.13" y="935.82" width="18" height="12" rx="2" ry="2"/><line class="cls-2" x1="1612.25" y1="950.82" x2="1630.25" y2="950.82"/><text class="cls-16" transform="translate(1607 984.58)"><tspan x="0" y="0">IDAC</tspan></text><path class="cls-12" d="M1533.8,914.82h0c11.05,0,20,8.95,20,20h0c0,11.05-8.95,20-20,20h0c-11.05,0-20-8.95-20-20h0c0-11.05,8.95-20,20-20Z"/><rect class="cls-8" x="1524.68" y="926.82" width="18" height="12" rx="2" ry="2"/><line class="cls-2" x1="1524.8" y1="941.82" x2="1542.8" y2="941.82"/><text class="cls-16" transform="translate(1519.55 975.57)"><tspan x="0" y="0">IDAC</tspan></text><path class="cls-12" d="M1776.21,1007.11h0c11.05,0,20,8.95,20,20h0c0,11.05-8.95,20-20,20h0c-11.05,0-20-8.95-20-20h0c0-11.05,8.95-20,20-20Z"/><rect class="cls-8" x="1767.09" y="1019.11" width="18" height="12" rx="2" ry="2"/><line class="cls-2" x1="1767.21" y1="1034.11" x2="1785.21" y2="1034.11"/><text class="cls-16" transform="translate(1761.96 1067.87)"><tspan x="0" y="0">IDAC</tspan></text><path class="cls-12" d="M1829.97,1070.56h0c11.05,0,20,8.95,20,20h0c0,11.05-8.95,20-20,20h0c-11.05,0-20-8.95-20-20h0c0-11.05,8.95-20,20-20Z"/><rect class="cls-8" x="1820.85" y="1082.56" width="18" height="12" rx="2" ry="2"/><line class="cls-2" x1="1820.97" y1="1097.56" x2="1838.97" y2="1097.56"/><text class="cls-16" transform="translate(1815.71 1131.31)"><tspan x="0" y="0">IDAC</tspan></text><path class="cls-12" d="M1703.94,955.2h0c11.05,0,20,8.95,20,20h0c0,11.05-8.95,20-20,20h0c-11.05,0-20-8.95-20-20h0c0-11.05,8.95-20,20-20Z"/><rect class="cls-8" x="1694.82" y="967.2" width="18" height="12" rx="2" ry="2"/><line class="cls-2" x1="1694.94" y1="982.2" x2="1712.94" y2="982.2"/><text class="cls-16" transform="translate(1689.68 1015.95)"><tspan x="0" y="0">IDAC</tspan></text></g><g id="sites"><line class="cls-3" x1="535.24" y1="829.94" x2="243.25" y2="829.94"/><path class="cls-3" d="M547.24,847.94l152.19,269"/><path class="cls-3" d="M536.63,821.92l-70.99,302.36"/><path class="cls-3" d="M547.24,813.94l-252.41,192.96"/><path class="cls-3" d="M547.24,835.94l-282.37-198.3"/><path class="cls-3" d="M550.24,805.94l116-239"/><path class="cls-3" d="M537.24,815.94l-74-264"/><path class="cls-3" d="M539.24,832.94l273.37-137.3"/><path class="cls-3" d="M525.87,823.68l300.33,96.21-300.33-96.21Z"/><path class="cls-11" d="M462.24,1111.94h0c11.05,0,20,8.95,20,20h0c0,11.05-8.95,20-20,20h0c-11.05,0-20-8.95-20-20h0c0-11.05,8.95-20,20-20Z"/><path class="cls-9" d="M458.87,1124.28h2.78"/><path class="cls-9" d="M462.87,1124.28h2.78"/><path class="cls-9" d="M462.87,1127.73h2.78"/><path class="cls-9" d="M458.87,1127.73h2.78"/><path class="cls-9" d="M458.87,1131.19h2.78"/><path class="cls-9" d="M462.87,1131.19h2.78"/><path class="cls-9" d="M458.87,1138.1h2.78"/><path class="cls-9" d="M462.87,1138.1h2.78"/><path class="cls-9" d="M458.87,1141.55h2.78"/><path class="cls-9" d="M462.87,1141.55h2.78"/><path class="cls-9" d="M458.87,1134.64h2.78"/><path class="cls-9" d="M462.87,1134.64h2.78"/><path class="cls-7" d="M456.43,1142.93v-22h11.65v22"/><path class="cls-7" d="M473.83,1142.94v-12.04h-3.55"/><path class="cls-9" d="M470.87,1140.64v2"/><path class="cls-9" d="M470.87,1137.14v2"/><path class="cls-9" d="M470.87,1133.64v2"/><path class="cls-7" d="M450.65,1142.94v-12.04h3.55"/><path class="cls-9" d="M453.6,1140.64v2"/><path class="cls-9" d="M453.6,1137.14v2"/><path class="cls-9" d="M453.6,1133.64v2"/><path class="cls-11" d="M224.24,806.94h0c11.05,0,20,8.95,20,20h0c0,11.05-8.95,20-20,20h0c-11.05,0-20-8.95-20-20h0c0-11.05,8.95-20,20-20Z"/><path class="cls-9" d="M220.87,819.28h2.78"/><path class="cls-9" d="M224.87,819.28h2.78"/><path class="cls-9" d="M224.87,822.73h2.78"/><path class="cls-9" d="M220.87,822.73h2.78"/><path class="cls-9" d="M220.87,826.19h2.78"/><path class="cls-9" d="M224.87,826.19h2.78"/><path class="cls-9" d="M220.87,833.1h2.78"/><path class="cls-9" d="M224.87,833.1h2.78"/><path class="cls-9" d="M220.87,836.55h2.78"/><path class="cls-9" d="M224.87,836.55h2.78"/><path class="cls-9" d="M220.87,829.64h2.78"/><path class="cls-9" d="M224.87,829.64h2.78"/><path class="cls-7" d="M218.43,837.93v-22h11.65v22"/><path class="cls-7" d="M235.83,837.94v-12.04h-3.55"/><path class="cls-9" d="M232.87,835.64v2"/><path class="cls-9" d="M232.87,832.14v2"/><path class="cls-9" d="M232.87,828.64v2"/><path class="cls-7" d="M212.65,837.94v-12.04h3.55"/><path class="cls-9" d="M215.6,835.64v2"/><path class="cls-9" d="M215.6,832.14v2"/><path class="cls-9" d="M215.6,828.64v2"/><text class="cls-16" transform="translate(202.94 868.59)"><tspan x="0" y="0">Site (3)</tspan></text><path class="cls-11" d="M264.24,614.94h0c11.05,0,20,8.95,20,20h0c0,11.05-8.95,20-20,20h0c-11.05,0-20-8.95-20-20h0c0-11.05,8.95-20,20-20Z"/><path class="cls-9" d="M260.87,627.28h2.78"/><path class="cls-9" d="M264.87,627.28h2.78"/><path class="cls-9" d="M264.87,630.73h2.78"/><path class="cls-9" d="M260.87,630.73h2.78"/><path class="cls-9" d="M260.87,634.19h2.78"/><path class="cls-9" d="M264.87,634.19h2.78"/><path class="cls-9" d="M260.87,641.1h2.78"/><path class="cls-9" d="M264.87,641.1h2.78"/><path class="cls-9" d="M260.87,644.55h2.78"/><path class="cls-9" d="M264.87,644.55h2.78"/><path class="cls-9" d="M260.87,637.64h2.78"/><path class="cls-9" d="M264.87,637.64h2.78"/><path class="cls-7" d="M258.43,645.93v-22h11.65v22"/><path class="cls-7" d="M275.83,645.94v-12.04h-3.55"/><path class="cls-9" d="M272.87,643.64v2"/><path class="cls-9" d="M272.87,640.14v2"/><path class="cls-9" d="M272.87,636.64v2"/><path class="cls-7" d="M252.65,645.94v-12.04h3.55"/><path class="cls-9" d="M255.6,643.64v2"/><path class="cls-9" d="M255.6,640.14v2"/><path class="cls-9" d="M255.6,636.64v2"/><text class="cls-16" transform="translate(242.94 676.59)"><tspan x="0" y="0">Site (4)</tspan></text><path class="cls-11" d="M674.24,536.94h0c11.05,0,20,8.95,20,20h0c0,11.05-8.95,20-20,20h0c-11.05,0-20-8.95-20-20h0c0-11.05,8.95-20,20-20Z"/><path class="cls-9" d="M670.87,549.28h2.78"/><path class="cls-9" d="M674.87,549.28h2.78"/><path class="cls-9" d="M674.87,552.73h2.78"/><path class="cls-9" d="M670.87,552.73h2.78"/><path class="cls-9" d="M670.87,556.19h2.78"/><path class="cls-9" d="M674.87,556.19h2.78"/><path class="cls-9" d="M670.87,563.1h2.78"/><path class="cls-9" d="M674.87,563.1h2.78"/><path class="cls-9" d="M670.87,566.55h2.78"/><path class="cls-9" d="M674.87,566.55h2.78"/><path class="cls-9" d="M670.87,559.64h2.78"/><path class="cls-9" d="M674.87,559.64h2.78"/><path class="cls-7" d="M668.43,567.93v-22h11.65v22"/><path class="cls-7" d="M685.83,567.94v-12.04h-3.55"/><path class="cls-9" d="M682.87,565.64v2"/><path class="cls-9" d="M682.87,562.14v2"/><path class="cls-9" d="M682.87,558.64v2"/><path class="cls-7" d="M662.65,567.94v-12.04h3.55"/><path class="cls-9" d="M665.6,565.64v2"/><path class="cls-9" d="M665.6,562.14v2"/><path class="cls-9" d="M665.6,558.64v2"/><path class="cls-11" d="M821.24,671.94h0c11.05,0,20,8.95,20,20h0c0,11.05-8.95,20-20,20h0c-11.05,0-20-8.95-20-20h0c0-11.05,8.95-20,20-20Z"/><path class="cls-9" d="M817.87,684.28h2.78"/><path class="cls-9" d="M821.87,684.28h2.78"/><path class="cls-9" d="M821.87,687.73h2.78"/><path class="cls-9" d="M817.87,687.73h2.78"/><path class="cls-9" d="M817.87,691.19h2.78"/><path class="cls-9" d="M821.87,691.19h2.78"/><path class="cls-9" d="M817.87,698.1h2.78"/><path class="cls-9" d="M821.87,698.1h2.78"/><path class="cls-9" d="M817.87,701.55h2.78"/><path class="cls-9" d="M821.87,701.55h2.78"/><path class="cls-9" d="M817.87,694.64h2.78"/><path class="cls-9" d="M821.87,694.64h2.78"/><path class="cls-7" d="M815.43,702.93v-22h11.65v22"/><path class="cls-7" d="M832.83,702.94v-12.04h-3.55"/><path class="cls-9" d="M829.87,700.64v2"/><path class="cls-9" d="M829.87,697.14v2"/><path class="cls-9" d="M829.87,693.64v2"/><path class="cls-7" d="M809.65,702.94v-12.04h3.55"/><path class="cls-9" d="M812.6,700.64v2"/><path class="cls-9" d="M812.6,697.14v2"/><path class="cls-9" d="M812.6,693.64v2"/><text class="cls-16" transform="translate(799.94 733.59)"><tspan x="0" y="0">Site (2)</tspan></text><path class="cls-11" d="M834.24,900.94h0c11.05,0,20,8.95,20,20h0c0,11.05-8.95,20-20,20h0c-11.05,0-20-8.95-20-20h0c0-11.05,8.95-20,20-20Z"/><path class="cls-9" d="M830.87,913.28h2.78"/><path class="cls-9" d="M834.87,913.28h2.78"/><path class="cls-9" d="M834.87,916.73h2.78"/><path class="cls-9" d="M830.87,916.73h2.78"/><path class="cls-9" d="M830.87,920.19h2.78"/><path class="cls-9" d="M834.87,920.19h2.78"/><path class="cls-9" d="M830.87,927.1h2.78"/><path class="cls-9" d="M834.87,927.1h2.78"/><path class="cls-9" d="M830.87,930.55h2.78"/><path class="cls-9" d="M834.87,930.55h2.78"/><path class="cls-9" d="M830.87,923.64h2.78"/><path class="cls-9" d="M834.87,923.64h2.78"/><path class="cls-7" d="M828.43,931.93v-22h11.65v22"/><path class="cls-7" d="M845.83,931.94v-12.04h-3.55"/><path class="cls-9" d="M842.87,929.64v2"/><path class="cls-9" d="M842.87,926.14v2"/><path class="cls-9" d="M842.87,922.64v2"/><path class="cls-7" d="M822.65,931.94v-12.04h3.55"/><path class="cls-9" d="M825.6,929.64v2"/><path class="cls-9" d="M825.6,926.14v2"/><path class="cls-9" d="M825.6,922.64v2"/><text class="cls-16" transform="translate(812.94 962.59)"><tspan x="0" y="0">Site (5)</tspan></text><path class="cls-11" d="M465.24,525.94h0c11.05,0,20,8.95,20,20h0c0,11.05-8.95,20-20,20h0c-11.05,0-20-8.95-20-20h0c0-11.05,8.95-20,20-20Z"/><path class="cls-9" d="M461.87,538.28h2.78"/><path class="cls-9" d="M465.87,538.28h2.78"/><path class="cls-9" d="M465.87,541.73h2.78"/><path class="cls-9" d="M461.87,541.73h2.78"/><path class="cls-9" d="M461.87,545.19h2.78"/><path class="cls-9" d="M465.87,545.19h2.78"/><path class="cls-9" d="M461.87,552.1h2.78"/><path class="cls-9" d="M465.87,552.1h2.78"/><path class="cls-9" d="M461.87,555.55h2.78"/><path class="cls-9" d="M465.87,555.55h2.78"/><path class="cls-9" d="M461.87,548.64h2.78"/><path class="cls-9" d="M465.87,548.64h2.78"/><path class="cls-7" d="M459.43,556.93v-22h11.65v22"/><path class="cls-7" d="M476.83,556.94v-12.04h-3.55"/><path class="cls-9" d="M473.87,554.64v2"/><path class="cls-9" d="M473.87,551.14v2"/><path class="cls-9" d="M473.87,547.64v2"/><path class="cls-7" d="M453.65,556.94v-12.04h3.55"/><path class="cls-9" d="M456.6,554.64v2"/><path class="cls-9" d="M456.6,551.14v2"/><path class="cls-9" d="M456.6,547.64v2"/><text class="cls-16" transform="translate(443.94 587.59)"><tspan x="0" y="0">Site (2)</tspan></text><path class="cls-11" d="M697.24,1093.94h0c11.05,0,20,8.95,20,20h0c0,11.05-8.95,20-20,20h0c-11.05,0-20-8.95-20-20h0c0-11.05,8.95-20,20-20Z"/><path class="cls-9" d="M693.87,1106.28h2.78"/><path class="cls-9" d="M697.87,1106.28h2.78"/><path class="cls-9" d="M697.87,1109.73h2.78"/><path class="cls-9" d="M693.87,1109.73h2.78"/><path class="cls-9" d="M693.87,1113.19h2.78"/><path class="cls-9" d="M697.87,1113.19h2.78"/><path class="cls-9" d="M693.87,1120.1h2.78"/><path class="cls-9" d="M697.87,1120.1h2.78"/><path class="cls-9" d="M693.87,1123.55h2.78"/><path class="cls-9" d="M697.87,1123.55h2.78"/><path class="cls-9" d="M693.87,1116.64h2.78"/><path class="cls-9" d="M697.87,1116.64h2.78"/><path class="cls-7" d="M691.43,1124.93v-22h11.65v22"/><path class="cls-7" d="M708.83,1124.94v-12.04h-3.55"/><path class="cls-9" d="M705.87,1122.64v2"/><path class="cls-9" d="M705.87,1119.14v2"/><path class="cls-9" d="M705.87,1115.64v2"/><path class="cls-7" d="M685.65,1124.94v-12.04h3.55"/><path class="cls-9" d="M688.6,1122.64v2"/><path class="cls-9" d="M688.6,1119.14v2"/><path class="cls-9" d="M688.6,1115.64v2"/><text class="cls-16" transform="translate(675.94 1155.59)"><tspan x="0" y="0">Site (3)</tspan></text><path class="cls-17" d="M541.24,793.94h0c19.88,0,36,16.12,36,36h0c0,19.88-16.12,36-36,36h0c-19.88,0-36-16.12-36-36h0c0-19.88,16.12-36,36-36Z"/><path class="cls-9" d="M554.96,843.81h-27.46c-5.52,0-10.13-4.34-10.26-9.68-.11-4.92,3.3-9.13,8.14-10,.24-.04.43-.21.5-.44,1.88-6.92,8.2-11.75,15.36-11.75s13.48,4.83,15.37,11.75c.06.23.25.4.5.44,4.83.88,8.25,5.09,8.14,10-.13,5.34-4.74,9.68-10.26,9.68h0Z"/><path class="cls-18" d="M619.24,956.94h0c11.05,0,20,8.95,20,20h0c0,11.05-8.95,20-20,20h0c-11.05,0-20-8.95-20-20h0c0-11.05,8.95-20,20-20Z"/><path class="cls-5" d="M612.3,972.56l4.24,4.24-4.24,4.24"/><path class="cls-5" d="M626.45,981.04l-4.24-4.24,4.24-4.24"/><path class="cls-5" d="M622.2,976.8h9.9"/><path class="cls-5" d="M606.65,976.8h9.9"/><path class="cls-5" d="M614.86,968.59l4.24-4.24,4.24,4.24"/><path class="cls-5" d="M623.34,985.56l-4.24,4.24-4.24-4.24"/><path class="cls-5" d="M619.1,964.34v9.9"/><path class="cls-5" d="M619.1,989.8v-9.9"/><text class="cls-16" transform="translate(572.72 1019.02)"><tspan x="0" y="0">Private Gateway</tspan></text><text class="cls-15" transform="translate(571.32 1037.8)"><tspan x="0" y="0">exe.domain.com</tspan></text><path class="cls-18" d="M385.24,700.94h0c11.05,0,20,8.95,20,20h0c0,11.05-8.95,20-20,20h0c-11.05,0-20-8.95-20-20h0c0-11.05,8.95-20,20-20Z"/><path class="cls-5" d="M378.3,716.56l4.24,4.24-4.24,4.24"/><path class="cls-5" d="M392.45,725.04l-4.24-4.24,4.24-4.24"/><path class="cls-5" d="M388.2,720.8h9.9"/><path class="cls-5" d="M372.65,720.8h9.9"/><path class="cls-5" d="M380.86,712.59l4.24-4.24,4.24,4.24"/><path class="cls-5" d="M389.34,729.56l-4.24,4.24-4.24-4.24"/><path class="cls-5" d="M385.1,708.34v9.9"/><path class="cls-5" d="M385.1,733.8v-9.9"/><text class="cls-16" transform="translate(338.72 763.02)"><tspan x="0" y="0">Private Gateway</tspan></text><text class="cls-15" transform="translate(336.85 781.8)"><tspan x="0" y="0">abc.domain.com</tspan></text><path class="cls-11" d="M283.24,993.94h0c11.05,0,20,8.95,20,20h0c0,11.05-8.95,20-20,20h0c-11.05,0-20-8.95-20-20h0c0-11.05,8.95-20,20-20Z"/><path class="cls-9" d="M279.87,1006.28h2.78"/><path class="cls-9" d="M283.87,1006.28h2.78"/><path class="cls-9" d="M283.87,1009.73h2.78"/><path class="cls-9" d="M279.87,1009.73h2.78"/><path class="cls-9" d="M279.87,1013.19h2.78"/><path class="cls-9" d="M283.87,1013.19h2.78"/><path class="cls-9" d="M279.87,1020.1h2.78"/><path class="cls-9" d="M283.87,1020.1h2.78"/><path class="cls-9" d="M279.87,1023.55h2.78"/><path class="cls-9" d="M283.87,1023.55h2.78"/><path class="cls-9" d="M279.87,1016.64h2.78"/><path class="cls-9" d="M283.87,1016.64h2.78"/><path class="cls-7" d="M277.43,1024.93v-22h11.65v22"/><path class="cls-7" d="M294.83,1024.94v-12.04h-3.55"/><path class="cls-9" d="M291.87,1022.64v2"/><path class="cls-9" d="M291.87,1019.14v2"/><path class="cls-9" d="M291.87,1015.64v2"/><path class="cls-7" d="M271.65,1024.94v-12.04h3.55"/><path class="cls-9" d="M274.6,1022.64v2"/><path class="cls-9" d="M274.6,1019.14v2"/><path class="cls-9" d="M274.6,1015.64v2"/><text class="cls-16" transform="translate(261.94 1055.59)"><tspan x="0" y="0">Site (2)</tspan></text><circle class="cls-9" cx="541.24" cy="828.44" r="10"/><path class="cls-9" d="M541.24,819.22c-5.09,5.09-5.09,13.33,0,18.43"/><path class="cls-9" d="M541.24,819.22c5.09,5.09,5.09,13.33,0,18.43"/><line class="cls-9" x1="531.24" y1="828.44" x2="551.24" y2="828.44"/><path class="cls-11" d="M1374.61,212.78h0c11.05,0,20,8.95,20,20h0c0,11.05-8.95,20-20,20h0c-11.05,0-20-8.95-20-20h0c0-11.05,8.95-20,20-20Z"/><path class="cls-9" d="M1371.24,225.12h2.78"/><path class="cls-9" d="M1375.24,225.12h2.78"/><path class="cls-9" d="M1375.24,228.57h2.78"/><path class="cls-9" d="M1371.24,228.57h2.78"/><path class="cls-9" d="M1371.24,232.03h2.78"/><path class="cls-9" d="M1375.24,232.03h2.78"/><path class="cls-9" d="M1371.24,238.94h2.78"/><path class="cls-9" d="M1375.24,238.94h2.78"/><path class="cls-9" d="M1371.24,242.39h2.78"/><path class="cls-9" d="M1375.24,242.39h2.78"/><path class="cls-9" d="M1371.24,235.48h2.78"/><path class="cls-9" d="M1375.24,235.48h2.78"/><path class="cls-7" d="M1368.81,243.77v-22h11.65v22"/><path class="cls-7" d="M1386.21,243.78v-12.04h-3.55"/><path class="cls-9" d="M1383.25,241.48v2"/><path class="cls-9" d="M1383.25,237.98v2"/><path class="cls-9" d="M1383.25,234.48v2"/><path class="cls-7" d="M1363.02,243.78v-12.04h3.55"/><path class="cls-9" d="M1365.98,241.48v2"/><path class="cls-9" d="M1365.98,237.98v2"/><path class="cls-9" d="M1365.98,234.48v2"/><text class="cls-16" transform="translate(1353.31 274.43)"><tspan x="0" y="0">Site (3)</tspan></text><path class="cls-11" d="M1538.93,140.49h0c11.05,0,20,8.95,20,20h0c0,11.05-8.95,20-20,20h0c-11.05,0-20-8.95-20-20h0c0-11.05,8.95-20,20-20Z"/><path class="cls-9" d="M1535.55,152.83h2.78"/><path class="cls-9" d="M1539.55,152.83h2.78"/><path class="cls-9" d="M1539.55,156.28h2.78"/><path class="cls-9" d="M1535.55,156.28h2.78"/><path class="cls-9" d="M1535.55,159.74h2.78"/><path class="cls-9" d="M1539.55,159.74h2.78"/><path class="cls-9" d="M1535.55,166.65h2.78"/><path class="cls-9" d="M1539.55,166.65h2.78"/><path class="cls-9" d="M1535.55,170.1h2.78"/><path class="cls-9" d="M1539.55,170.1h2.78"/><path class="cls-9" d="M1535.55,163.19h2.78"/><path class="cls-9" d="M1539.55,163.19h2.78"/><path class="cls-7" d="M1533.12,171.48v-22h11.65v22"/><path class="cls-7" d="M1550.52,171.49v-12.04h-3.55"/><path class="cls-9" d="M1547.56,169.19v2"/><path class="cls-9" d="M1547.56,165.69v2"/><path class="cls-9" d="M1547.56,162.19v2"/><path class="cls-7" d="M1527.33,171.49v-12.04h3.55"/><path class="cls-9" d="M1530.29,169.19v2"/><path class="cls-9" d="M1530.29,165.69v2"/><path class="cls-9" d="M1530.29,162.19v2"/><text class="cls-16" transform="translate(1517.63 202.14)"><tspan x="0" y="0">Site (2)</tspan></text><path class="cls-11" d="M1325.4,392.48h0c11.05,0,20,8.95,20,20h0c0,11.05-8.95,20-20,20h0c-11.05,0-20-8.95-20-20h0c0-11.05,8.95-20,20-20Z"/><path class="cls-9" d="M1322.03,404.82h2.78"/><path class="cls-9" d="M1326.03,404.82h2.78"/><path class="cls-9" d="M1326.03,408.27h2.78"/><path class="cls-9" d="M1322.03,408.27h2.78"/><path class="cls-9" d="M1322.03,411.73h2.78"/><path class="cls-9" d="M1326.03,411.73h2.78"/><path class="cls-9" d="M1322.03,418.64h2.78"/><path class="cls-9" d="M1326.03,418.64h2.78"/><path class="cls-9" d="M1322.03,422.09h2.78"/><path class="cls-9" d="M1326.03,422.09h2.78"/><path class="cls-9" d="M1322.03,415.18h2.78"/><path class="cls-9" d="M1326.03,415.18h2.78"/><path class="cls-7" d="M1319.59,423.48v-22h11.65v22"/><path class="cls-7" d="M1336.99,423.48v-12.04h-3.55"/><path class="cls-9" d="M1334.03,421.18v2"/><path class="cls-9" d="M1334.03,417.68v2"/><path class="cls-9" d="M1334.03,414.18v2"/><path class="cls-7" d="M1313.81,423.48v-12.04h3.55"/><path class="cls-9" d="M1316.77,421.18v2"/><path class="cls-9" d="M1316.77,417.68v2"/><path class="cls-9" d="M1316.77,414.18v2"/><text class="cls-16" transform="translate(1304.1 454.13)"><tspan x="0" y="0">Site (4)</tspan></text><path class="cls-11" d="M1431.4,563.48h0c11.05,0,20,8.95,20,20h0c0,11.05-8.95,20-20,20h0c-11.05,0-20-8.95-20-20h0c0-11.05,8.95-20,20-20Z"/><path class="cls-9" d="M1428.03,575.82h2.78"/><path class="cls-9" d="M1432.03,575.82h2.78"/><path class="cls-9" d="M1432.03,579.27h2.78"/><path class="cls-9" d="M1428.03,579.27h2.78"/><path class="cls-9" d="M1428.03,582.73h2.78"/><path class="cls-9" d="M1432.03,582.73h2.78"/><path class="cls-9" d="M1428.03,589.64h2.78"/><path class="cls-9" d="M1432.03,589.64h2.78"/><path class="cls-9" d="M1428.03,593.09h2.78"/><path class="cls-9" d="M1432.03,593.09h2.78"/><path class="cls-9" d="M1428.03,586.18h2.78"/><path class="cls-9" d="M1432.03,586.18h2.78"/><path class="cls-7" d="M1425.59,594.48v-22h11.66v22"/><path class="cls-7" d="M1442.99,594.48v-12.04h-3.55"/><path class="cls-9" d="M1440.03,592.18v2"/><path class="cls-9" d="M1440.03,588.68v2"/><path class="cls-9" d="M1440.03,585.18v2"/><path class="cls-7" d="M1419.81,594.48v-12.04h3.55"/><path class="cls-9" d="M1422.77,592.18v2"/><path class="cls-9" d="M1422.77,588.68v2"/><path class="cls-9" d="M1422.77,585.18v2"/><text class="cls-16" transform="translate(1410.1 625.13)"><tspan x="0" y="0">Site (3)</tspan></text><path class="cls-11" d="M1645.4,563.48h0c11.05,0,20,8.95,20,20h0c0,11.05-8.95,20-20,20h0c-11.05,0-20-8.95-20-20h0c0-11.05,8.95-20,20-20Z"/><path class="cls-9" d="M1642.03,575.82h2.78"/><path class="cls-9" d="M1646.03,575.82h2.78"/><path class="cls-9" d="M1646.03,579.27h2.78"/><path class="cls-9" d="M1642.03,579.27h2.78"/><path class="cls-9" d="M1642.03,582.73h2.78"/><path class="cls-9" d="M1646.03,582.73h2.78"/><path class="cls-9" d="M1642.03,589.64h2.78"/><path class="cls-9" d="M1646.03,589.64h2.78"/><path class="cls-9" d="M1642.03,593.09h2.78"/><path class="cls-9" d="M1646.03,593.09h2.78"/><path class="cls-9" d="M1642.03,586.18h2.78"/><path class="cls-9" d="M1646.03,586.18h2.78"/><path class="cls-7" d="M1639.59,594.48v-22h11.66v22"/><path class="cls-7" d="M1656.99,594.48v-12.04h-3.55"/><path class="cls-9" d="M1654.03,592.18v2"/><path class="cls-9" d="M1654.03,588.68v2"/><path class="cls-9" d="M1654.03,585.18v2"/><path class="cls-7" d="M1633.81,594.48v-12.04h3.55"/><path class="cls-9" d="M1636.77,592.18v2"/><path class="cls-9" d="M1636.77,588.68v2"/><path class="cls-9" d="M1636.77,585.18v2"/><text class="cls-16" transform="translate(1624.1 625.13)"><tspan x="0" y="0">Site (3)</tspan></text><path class="cls-11" d="M1751.4,397.48h0c11.05,0,20,8.95,20,20h0c0,11.05-8.95,20-20,20h0c-11.05,0-20-8.95-20-20h0c0-11.05,8.95-20,20-20Z"/><path class="cls-9" d="M1748.03,409.82h2.78"/><path class="cls-9" d="M1752.03,409.82h2.78"/><path class="cls-9" d="M1752.03,413.27h2.78"/><path class="cls-9" d="M1748.03,413.27h2.78"/><path class="cls-9" d="M1748.03,416.73h2.78"/><path class="cls-9" d="M1752.03,416.73h2.78"/><path class="cls-9" d="M1748.03,423.64h2.78"/><path class="cls-9" d="M1752.03,423.64h2.78"/><path class="cls-9" d="M1748.03,427.09h2.78"/><path class="cls-9" d="M1752.03,427.09h2.78"/><path class="cls-9" d="M1748.03,420.18h2.78"/><path class="cls-9" d="M1752.03,420.18h2.78"/><path class="cls-7" d="M1745.59,428.48v-22h11.66v22"/><path class="cls-7" d="M1762.99,428.48v-12.04h-3.55"/><path class="cls-9" d="M1760.03,426.18v2"/><path class="cls-9" d="M1760.03,422.68v2"/><path class="cls-9" d="M1760.03,419.18v2"/><path class="cls-7" d="M1739.81,428.48v-12.04h3.55"/><path class="cls-9" d="M1742.77,426.18v2"/><path class="cls-9" d="M1742.77,422.68v2"/><path class="cls-9" d="M1742.77,419.18v2"/><text class="cls-16" transform="translate(1730.1 459.13)"><tspan x="0" y="0">Site (2)</tspan></text><path class="cls-11" d="M1702.4,216.78h0c11.05,0,20,8.95,20,20h0c0,11.05-8.95,20-20,20h0c-11.05,0-20-8.95-20-20h0c0-11.05,8.95-20,20-20Z"/><path class="cls-9" d="M1699.03,229.12h2.78"/><path class="cls-9" d="M1703.03,229.12h2.78"/><path class="cls-9" d="M1703.03,232.57h2.78"/><path class="cls-9" d="M1699.03,232.57h2.78"/><path class="cls-9" d="M1699.03,236.03h2.78"/><path class="cls-9" d="M1703.03,236.03h2.78"/><path class="cls-9" d="M1699.03,242.94h2.78"/><path class="cls-9" d="M1703.03,242.94h2.78"/><path class="cls-9" d="M1699.03,246.39h2.78"/><path class="cls-9" d="M1703.03,246.39h2.78"/><path class="cls-9" d="M1699.03,239.48h2.78"/><path class="cls-9" d="M1703.03,239.48h2.78"/><path class="cls-7" d="M1696.59,247.77v-22h11.66v22"/><path class="cls-7" d="M1713.99,247.78v-12.04h-3.55"/><path class="cls-9" d="M1711.03,245.48v2"/><path class="cls-9" d="M1711.03,241.98v2"/><path class="cls-9" d="M1711.03,238.48v2"/><path class="cls-7" d="M1690.81,247.78v-12.04h3.55"/><path class="cls-9" d="M1693.77,245.48v2"/><path class="cls-9" d="M1693.77,241.98v2"/><path class="cls-9" d="M1693.77,238.48v2"/><text class="cls-16" transform="translate(1681.1 278.43)"><tspan x="0" y="0">Site (3)</tspan></text><path class="cls-18" d="M1538.4,340.48h0c19.88,0,36,16.12,36,36h0c0,19.88-16.12,36-36,36h0c-19.88,0-36-16.12-36-36h0c0-19.88,16.12-36,36-36Z"/><path class="cls-6" d="M1526.54,368.99l7.26,7.26-7.26,7.26"/><path class="cls-6" d="M1550.73,383.5l-7.26-7.26,7.26-7.26"/><path class="cls-6" d="M1543.47,376.24h16.93"/><path class="cls-6" d="M1516.87,376.24h16.93"/><path class="cls-6" d="M1530.91,362.2l7.26-7.26,7.25,7.26"/><path class="cls-6" d="M1545.42,391.22l-7.25,7.26-7.26-7.26"/><path class="cls-6" d="M1538.17,354.94v16.93"/><path class="cls-6" d="M1538.17,398.48v-16.93"/><text class="cls-16" transform="translate(504.1 887.83)"><tspan x="0" y="0">Global Cloud</tspan></text><text class="cls-15" transform="translate(493.76 906.83)"><tspan x="0" y="0">tcp.domain.com</tspan></text><text class="cls-16" transform="translate(440.94 1173.59)"><tspan x="0" y="0">Site (3)</tspan></text><text class="cls-16" transform="translate(652.94 598.59)"><tspan x="0" y="0">Site (4)</tspan></text><text class="cls-16" transform="translate(1491.88 434.56)"><tspan x="0" y="0">Private Gateway</tspan></text><text class="cls-15" transform="translate(1490.01 453.34)"><tspan x="0" y="0">abc.domain.com</tspan></text><path class="cls-3" d="M1423.31,1105.39l-134.12-50.27"/><path class="cls-3" d="M1423.31,1105.39l-181.04,15.97"/><path class="cls-3" d="M1424.31,1105.39l-2.72-130.91"/><path class="cls-12" d="M1281.19,1027.11h0c11.05,0,20,8.95,20,20h0c0,11.05-8.95,20-20,20h0c-11.05,0-20-8.95-20-20h0c0-11.05,8.95-20,20-20Z"/><rect class="cls-8" x="1272.06" y="1039.11" width="18" height="12" rx="2" ry="2"/><line class="cls-2" x1="1272.19" y1="1054.11" x2="1290.19" y2="1054.11"/><text class="cls-16" transform="translate(1266.93 1087.87)"><tspan x="0" y="0">IDAC</tspan></text><path class="cls-12" d="M1234.27,1093.36h0c11.05,0,20,8.95,20,20h0c0,11.05-8.95,20-20,20h0c-11.05,0-20-8.95-20-20h0c0-11.05,8.95-20,20-20Z"/><rect class="cls-8" x="1225.14" y="1105.36" width="18" height="12" rx="2" ry="2"/><line class="cls-2" x1="1225.27" y1="1120.36" x2="1243.27" y2="1120.36"/><text class="cls-16" transform="translate(1220.01 1154.12)"><tspan x="0" y="0">IDAC</tspan></text><path class="cls-12" d="M1421.59,934.47h0c11.05,0,20,8.95,20,20h0c0,11.05-8.95,20-20,20h0c-11.05,0-20-8.95-20-20h0c0-11.05,8.95-20,20-20Z"/><rect class="cls-8" x="1412.46" y="946.47" width="18" height="12" rx="2" ry="2"/><line class="cls-2" x1="1412.59" y1="961.47" x2="1430.59" y2="961.47"/><text class="cls-16" transform="translate(1407.33 995.23)"><tspan x="0" y="0">IDAC</tspan></text><path class="cls-12" d="M1350.5,969.19h0c11.05,0,20,8.95,20,20h0c0,11.05-8.95,20-20,20h0c-11.05,0-20-8.95-20-20h0c0-11.05,8.95-20,20-20Z"/><rect class="cls-8" x="1341.37" y="981.19" width="18" height="12" rx="2" ry="2"/><line class="cls-2" x1="1341.5" y1="996.19" x2="1359.5" y2="996.19"/><text class="cls-16" transform="translate(1336.24 1029.95)"><tspan x="0" y="0">IDAC</tspan></text><path class="cls-11" d="M1437.61,1100.39h0c11.05,0,20,8.95,20,20h0c0,11.05-8.95,20-20,20h0c-11.05,0-20-8.95-20-20h0c0-11.05,8.95-20,20-20Z"/><path class="cls-9" d="M1434.24,1112.73h2.78"/><path class="cls-9" d="M1438.24,1112.73h2.78"/><path class="cls-9" d="M1438.24,1116.18h2.78"/><path class="cls-9" d="M1434.24,1116.18h2.78"/><path class="cls-9" d="M1434.24,1119.64h2.78"/><path class="cls-9" d="M1438.24,1119.64h2.78"/><path class="cls-9" d="M1434.24,1126.55h2.78"/><path class="cls-9" d="M1438.24,1126.55h2.78"/><path class="cls-9" d="M1434.24,1130h2.78"/><path class="cls-9" d="M1438.24,1130h2.78"/><path class="cls-9" d="M1434.24,1123.09h2.78"/><path class="cls-9" d="M1438.24,1123.09h2.78"/><path class="cls-7" d="M1431.81,1131.39v-22h11.65v22"/><path class="cls-7" d="M1449.21,1131.39v-12.04h-3.55"/><path class="cls-9" d="M1446.25,1129.09v2"/><path class="cls-9" d="M1446.25,1125.59v2"/><path class="cls-9" d="M1446.25,1122.09v2"/><path class="cls-7" d="M1426.02,1131.39v-12.04h3.55"/><path class="cls-9" d="M1428.98,1129.09v2"/><path class="cls-9" d="M1428.98,1125.59v2"/><path class="cls-9" d="M1428.98,1122.09v2"/><text class="cls-16" transform="translate(1416.31 1162.05)"><tspan x="0" y="0">Site (4)</tspan></text><path class="cls-11" d="M1446.61,1427.09h0c11.05,0,20,8.95,20,20h0c0,11.05-8.95,20-20,20h0c-11.05,0-20-8.95-20-20h0c0-11.05,8.95-20,20-20Z"/><path class="cls-9" d="M1443.24,1439.43h2.78"/><path class="cls-9" d="M1447.24,1439.43h2.78"/><path class="cls-9" d="M1447.24,1442.89h2.78"/><path class="cls-9" d="M1443.24,1442.89h2.78"/><path class="cls-9" d="M1443.24,1446.34h2.78"/><path class="cls-9" d="M1447.24,1446.34h2.78"/><path class="cls-9" d="M1443.24,1453.25h2.78"/><path class="cls-9" d="M1447.24,1453.25h2.78"/><path class="cls-9" d="M1443.24,1456.71h2.78"/><path class="cls-9" d="M1447.24,1456.71h2.78"/><path class="cls-9" d="M1443.24,1449.8h2.78"/><path class="cls-9" d="M1447.24,1449.8h2.78"/><path class="cls-7" d="M1440.8,1458.09v-22h11.66v22"/><path class="cls-7" d="M1458.2,1458.09v-12.04h-3.55"/><path class="cls-9" d="M1455.24,1455.79v2"/><path class="cls-9" d="M1455.24,1452.29v2"/><path class="cls-9" d="M1455.24,1448.79v2"/><path class="cls-7" d="M1435.02,1458.09v-12.04h3.55"/><path class="cls-9" d="M1437.98,1455.79v2"/><path class="cls-9" d="M1437.98,1452.29v2"/><path class="cls-9" d="M1437.98,1448.79v2"/><text class="cls-16" transform="translate(1425.31 1488.75)"><tspan x="0" y="0">Site (4)</tspan></text><path class="cls-11" d="M1643.23,1427.09h0c11.05,0,20,8.95,20,20h0c0,11.05-8.95,20-20,20h0c-11.05,0-20-8.95-20-20h0c0-11.05,8.95-20,20-20Z"/><path class="cls-9" d="M1639.86,1439.43h2.78"/><path class="cls-9" d="M1643.86,1439.43h2.78"/><path class="cls-9" d="M1643.86,1442.89h2.78"/><path class="cls-9" d="M1639.86,1442.89h2.78"/><path class="cls-9" d="M1639.86,1446.34h2.78"/><path class="cls-9" d="M1643.86,1446.34h2.78"/><path class="cls-9" d="M1639.86,1453.25h2.78"/><path class="cls-9" d="M1643.86,1453.25h2.78"/><path class="cls-9" d="M1639.86,1456.71h2.78"/><path class="cls-9" d="M1643.86,1456.71h2.78"/><path class="cls-9" d="M1639.86,1449.8h2.78"/><path class="cls-9" d="M1643.86,1449.8h2.78"/><path class="cls-7" d="M1637.42,1458.09v-22h11.66v22"/><path class="cls-7" d="M1654.82,1458.09v-12.04h-3.55"/><path class="cls-9" d="M1651.86,1455.79v2"/><path class="cls-9" d="M1651.86,1452.29v2"/><path class="cls-9" d="M1651.86,1448.79v2"/><path class="cls-7" d="M1631.64,1458.09v-12.04h3.55"/><path class="cls-9" d="M1634.6,1455.79v2"/><path class="cls-9" d="M1634.6,1452.29v2"/><path class="cls-9" d="M1634.6,1448.79v2"/><text class="cls-16" transform="translate(1621.93 1488.75)"><tspan x="0" y="0">Site (5)</tspan></text><path class="cls-11" d="M1630.23,1100.39h0c11.05,0,20,8.95,20,20h0c0,11.05-8.95,20-20,20h0c-11.05,0-20-8.95-20-20h0c0-11.05,8.95-20,20-20Z"/><path class="cls-9" d="M1626.86,1112.73h2.78"/><path class="cls-9" d="M1630.86,1112.73h2.78"/><path class="cls-9" d="M1630.86,1116.18h2.78"/><path class="cls-9" d="M1626.86,1116.18h2.78"/><path class="cls-9" d="M1626.86,1119.64h2.78"/><path class="cls-9" d="M1630.86,1119.64h2.78"/><path class="cls-9" d="M1626.86,1126.55h2.78"/><path class="cls-9" d="M1630.86,1126.55h2.78"/><path class="cls-9" d="M1626.86,1130.01h2.78"/><path class="cls-9" d="M1630.86,1130.01h2.78"/><path class="cls-9" d="M1626.86,1123.09h2.78"/><path class="cls-9" d="M1630.86,1123.09h2.78"/><path class="cls-7" d="M1624.42,1131.39v-22h11.66v22"/><path class="cls-7" d="M1641.82,1131.39v-12.04h-3.55"/><path class="cls-9" d="M1638.86,1129.09v2"/><path class="cls-9" d="M1638.86,1125.59v2"/><path class="cls-9" d="M1638.86,1122.09v2"/><path class="cls-7" d="M1618.64,1131.39v-12.04h3.55"/><path class="cls-9" d="M1621.6,1129.09v2"/><path class="cls-9" d="M1621.6,1125.59v2"/><path class="cls-9" d="M1621.6,1122.09v2"/><text class="cls-16" transform="translate(1608.93 1162.05)"><tspan x="0" y="0">Site (5)</tspan></text><path class="cls-18" d="M1538.4,1247.09h0c19.88,0,36,16.12,36,36h0c0,19.88-16.12,36-36,36h0c-19.88,0-36-16.12-36-36h0c0-19.88,16.12-36,36-36Z"/><path class="cls-6" d="M1526.54,1275.6l7.26,7.26-7.26,7.26"/><path class="cls-6" d="M1550.73,1290.11l-7.26-7.26,7.26-7.26"/><path class="cls-6" d="M1543.47,1282.86h16.93"/><path class="cls-6" d="M1516.87,1282.86h16.93"/><path class="cls-6" d="M1530.91,1268.81l7.26-7.26,7.25,7.26"/><path class="cls-6" d="M1545.42,1297.83l-7.25,7.26-7.26-7.26"/><path class="cls-6" d="M1538.17,1261.56v16.93"/><path class="cls-6" d="M1538.17,1305.09v-16.93"/><text class="cls-16" transform="translate(1491.88 1341.17)"><tspan x="0" y="0">Private Gateway</tspan></text><text class="cls-15" transform="translate(1490.48 1359.95)"><tspan x="0" y="0">exe.domain.com</tspan></text></g></svg>