<?xml version="1.0" encoding="UTF-8"?><svg id="Layer_1" xmlns="http://www.w3.org/2000/svg" width="130.27" height="81.5" viewBox="0 0 130.27 81.5"><defs><style>.cls-1{fill:none;stroke:#000850;stroke-linecap:round;stroke-linejoin:round;stroke-width:1.5px;}</style></defs><path class="cls-1" d="M93.65,28.74h28.97c3.81,0,6.9-3.09,6.9-6.9h0c0-3.81-3.09-6.9-6.9-6.9h-28.97"/><path class="cls-1" d="M93.65,64.61h28.97c3.81,0,6.9-3.09,6.9-6.9h0c0-3.81-3.09-6.9-6.9-6.9h-28.97"/><line class="cls-1" x1="16.36" y1="31.97" x2=".75" y2="31.97"/><path class="cls-1" d="M32.62,37.82c0-17.53,10.39-29.27,25.37-29.27h15.61s7.8-7.8,7.8-7.8h11.71s0,78.05,0,78.05l-9.76,1.95-9.76-9.76h-15.61c-12.5,0-20.8-10.27-23.41-23.41"/><line class="cls-1" x1="16.36" y1="47.58" x2=".75" y2="47.58"/><path class="cls-1" d="M36.9,55.38h-14.04c-4.57,0-6.38-6.47-6.38-15.61,0-9.14,1.81-15.61,6.38-15.61h11.71"/><line class="cls-1" x1="59.94" y1="22.21" x2="59.94" y2="57.34"/><line class="cls-1" x1="71.64" y1="22.21" x2="71.64" y2="57.34"/></svg>