<?xml version="1.0" encoding="UTF-8"?><svg id="Layer_1" xmlns="http://www.w3.org/2000/svg" width="70" height="20.36" viewBox="0 0 70 20.36"><defs><style>.cls-1{fill:#000850;}</style></defs><path id="Path_4060" class="cls-1" d="M18.94,10.96c-.43-.43-.43-1.13,0-1.57l.94-.79c.18-.16,.27-.41,.22-.65C18.88,2.47,13.44-.98,7.96,.25,2.47,1.47-.98,6.91,.25,12.4c1.22,5.49,6.67,8.93,12.14,7.71,3.84-.86,6.85-3.86,7.71-7.71,.05-.24-.03-.48-.22-.64l-.95-.8h0Zm-8.65,6.93c-4.26,0-7.71-3.46-7.71-7.71S6.03,2.48,10.28,2.48c3.04,0,5.81,1.79,7.04,4.58,.08,.17,.03,.38-.11,.51l-1,.83c-.08,.06-.19,.07-.27,0l-2.4-1.98c-2.07-1.85-5.27-1.68-7.12,.39s-1.68,5.27,.39,7.12c.93,.83,2.13,1.29,3.37,1.29,1.42,0,2.61-.62,3.61-1.52l1.63-1.37c.09-.08,.1-.21,.03-.31,0,0-.02-.02-.03-.03l-1.57-1.31c-.08-.07-.19-.07-.27,0l-2.05,1.7h0c-.51,.31-1.1,.44-1.69,.36-1.42-.18-2.41-1.49-2.22-2.9s1.49-2.41,2.9-2.22h0c.34,.04,.67,.16,.97,.33h0s.17,.13,.21,.16h0l5.56,4.58c.15,.12,.19,.31,.12,.49-1.21,2.85-4.01,4.71-7.1,4.71Z"/><g><path class="cls-1" d="M29.61,5.73c1.36,0,2.45,.46,3.34,1.41l.03,.03,1.19-1.15-.03-.03c-1.09-1.23-2.69-1.89-4.6-1.89-1.78,0-3.41,.62-4.58,1.75-1.18,1.14-1.83,2.71-1.83,4.44s.65,3.31,1.83,4.44c1.17,1.13,2.8,1.75,4.58,1.75,1.89,0,3.53-.67,4.62-1.91l.03-.03-1.19-1.15-.03,.03c-.89,.94-2.02,1.43-3.34,1.43-2.7,0-4.67-1.92-4.67-4.57s1.96-4.57,4.66-4.57v.02Z"/><path class="cls-1" d="M39.61,14.36l-3.14-7.2h-1.83l4.03,9.13-.28,.61c-.42,.99-.89,1.37-1.69,1.37-.6,0-1.16-.24-1.59-.66l-.04-.04-.75,1.33,.03,.03c.55,.53,1.43,.86,2.37,.86,1.56,0,2.54-.76,3.29-2.55l4.44-10.07h-1.72l-3.11,7.2h0Z"/><path class="cls-1" d="M65.23,7.07c-2.77,0-4.79,1.97-4.79,4.68s2.01,4.7,4.79,4.7h0c2.76,0,4.77-1.98,4.77-4.7s-2-4.68-4.77-4.68Zm-3.02,4.68c0-1.85,1.24-3.14,3.02-3.14s3,1.29,3,3.14-1.23,3.16-3,3.16h0c-1.78,0-3.02-1.29-3.02-3.16Z"/><path class="cls-1" d="M49.55,7.07c-2.77,0-4.79,1.97-4.79,4.68s2.01,4.7,4.79,4.7,4.77-1.98,4.77-4.7-2-4.68-4.77-4.68Zm3,4.68c0,1.86-1.23,3.16-3,3.16s-3.02-1.29-3.02-3.16,1.24-3.14,3.02-3.14,3,1.29,3,3.14Z"/><rect class="cls-1" x="56.5" y="3.52" width="1.75" height="12.83"/></g></svg>