<svg width="16" height="32" viewBox="0 0 16 32" fill="none" xmlns="http://www.w3.org/2000/svg">
<path fill-rule="evenodd" clip-rule="evenodd" d="M13.6568 2.34315C16.781 5.46734 16.781 10.5327 13.6568 13.6569C10.5326 16.781 5.46733 16.781 2.34313 13.6569C-0.781061 10.5327 -0.781061 5.46734 2.34313 2.34315C5.46733 -0.781048 10.5326 -0.781048 13.6568 2.34315ZM11.5355 11.5355C11.145 11.9261 10.5118 11.9261 10.1213 11.5355L7.99999 9.41421L5.87867 11.5355C5.48814 11.9261 4.85498 11.9261 4.46445 11.5355C4.07393 11.145 4.07393 10.5118 4.46445 10.1213L6.58577 8L4.46445 5.87868C4.07393 5.48816 4.07393 4.85499 4.46445 4.46447C4.85498 4.07394 5.48814 4.07394 5.87867 4.46447L7.99999 6.58579L10.1213 4.46447C10.5118 4.07394 11.145 4.07394 11.5355 4.46447C11.926 4.85499 11.926 5.48816 11.5355 5.87868L9.4142 8L11.5355 10.1213C11.926 10.5118 11.926 11.145 11.5355 11.5355Z" fill="#B7B7B7"/>
<path fill-rule="evenodd" clip-rule="evenodd" d="M13.6568 18.3431C16.781 21.4673 16.781 26.5327 13.6568 29.6569C10.5326 32.781 5.46733 32.781 2.34313 29.6569C-0.781061 26.5327 -0.781061 21.4673 2.34313 18.3431C5.46733 15.219 10.5326 15.219 13.6568 18.3431ZM11.5355 27.5355C11.145 27.9261 10.5118 27.9261 10.1213 27.5355L7.99999 25.4142L5.87867 27.5355C5.48814 27.9261 4.85498 27.9261 4.46445 27.5355C4.07393 27.145 4.07393 26.5118 4.46445 26.1213L6.58577 24L4.46445 21.8787C4.07393 21.4882 4.07393 20.855 4.46445 20.4645C4.85498 20.0739 5.48814 20.0739 5.87867 20.4645L7.99999 22.5858L10.1213 20.4645C10.5118 20.0739 11.145 20.0739 11.5355 20.4645C11.926 20.855 11.926 21.4882 11.5355 21.8787L9.4142 24L11.5355 26.1213C11.926 26.5118 11.926 27.145 11.5355 27.5355Z" fill="#898989"/>
</svg>
