<svg width="16" height="32" viewBox="0 0 16 32" fill="none" xmlns="http://www.w3.org/2000/svg">
<path fill-rule="evenodd" clip-rule="evenodd" d="M5 1C2.79086 1 1 2.79086 1 5V11C1 13.2091 2.79086 15 5 15H11C13.2091 15 15 13.2091 15 11V5C15 2.79086 13.2091 1 11 1H5ZM4.5 7C3.94772 7 3.5 7.44772 3.5 8C3.5 8.55228 3.94772 9 4.5 9H11.5C12.0523 9 12.5 8.55228 12.5 8C12.5 7.44772 12.0523 7 11.5 7H4.5Z" fill="#000850"/>
<path fill-rule="evenodd" clip-rule="evenodd" d="M1 21C1 18.7909 2.79086 17 5 17H11C13.2091 17 15 18.7909 15 21V27C15 29.2091 13.2091 31 11 31H5C2.79086 31 1 29.2091 1 27V21ZM8 28.5C7.44772 28.5 7 28.0523 7 27.5V25H4.5C3.94772 25 3.5 24.5523 3.5 24C3.5 23.4477 3.94772 23 4.5 23H7V20.5C7 19.9477 7.44772 19.5 8 19.5C8.55228 19.5 9 19.9477 9 20.5V23H11.5C12.0523 23 12.5 23.4477 12.5 24C12.5 24.5523 12.0523 25 11.5 25H9V27.5C9 28.0523 8.55228 28.5 8 28.5Z" fill="#000850"/>
</svg>
