<?xml version="1.0" encoding="UTF-8"?><svg id="Layer_1" xmlns="http://www.w3.org/2000/svg" width="24" height="48" viewBox="0 0 24 48"><defs><style>.cls-1{stroke:#e41c1c;}.cls-1,.cls-2{fill:none;stroke-linecap:round;stroke-linejoin:round;}.cls-2{stroke:#fff;}</style></defs><path class="cls-1" d="M6,8.07h12"/><path class="cls-1" d="M9.33,8.06v-1.33c0-.35.14-.69.39-.94.25-.25.59-.39.94-.39h2.67c.35,0,.69.14.94.39.25.25.39.59.39.94v1.33M16.67,8.06v9.33c0,.35-.14.69-.39.94s-.59.39-.94.39h-6.67c-.35,0-.69-.14-.94-.39-.25-.25-.39-.59-.39-.94v-9.33h9.33Z"/><path class="cls-1" d="M10.67,11.4v4"/><path class="cls-1" d="M13.33,11.4v4"/><path class="cls-2" d="M6,32h12"/><path class="cls-2" d="M9.33,32v-1.33c0-.35.14-.69.39-.94.25-.25.59-.39.94-.39h2.67c.35,0,.69.14.94.39.25.25.39.59.39.94v1.33M16.67,32v9.33c0,.35-.14.69-.39.94s-.59.39-.94.39h-6.67c-.35,0-.69-.14-.94-.39-.25-.25-.39-.59-.39-.94v-9.33h9.33Z"/><path class="cls-2" d="M10.67,35.33v4"/><path class="cls-2" d="M13.33,35.33v4"/></svg>