<svg width="26" height="23" viewBox="0 0 26 23" fill="none" xmlns="http://www.w3.org/2000/svg">
<path d="M9.62866 4.34061H12.4087" stroke="white" stroke-width="2" stroke-miterlimit="10"/>
<path d="M13.6287 4.34061H16.4087" stroke="white" stroke-width="2" stroke-miterlimit="10"/>
<path d="M13.6287 7.79532H16.4087" stroke="white" stroke-width="2" stroke-miterlimit="10"/>
<path d="M9.62866 7.79532H12.4087" stroke="white" stroke-width="2" stroke-miterlimit="10"/>
<path d="M9.62866 11.2512H12.4087" stroke="white" stroke-width="2" stroke-miterlimit="10"/>
<path d="M13.6287 11.2512H16.4087" stroke="white" stroke-width="2" stroke-miterlimit="10"/>
<path d="M9.62866 18.1606H12.4087" stroke="white" stroke-width="2" stroke-miterlimit="10"/>
<path d="M13.6287 18.1606H16.4087" stroke="white" stroke-width="2" stroke-miterlimit="10"/>
<path d="M9.62866 21.6165H12.4087" stroke="white" stroke-width="2" stroke-miterlimit="10"/>
<path d="M13.6287 21.6165H16.4087" stroke="white" stroke-width="2" stroke-miterlimit="10"/>
<path d="M9.62866 14.7047H12.4087" stroke="white" stroke-width="2" stroke-miterlimit="10"/>
<path d="M13.6287 14.7047H16.4087" stroke="white" stroke-width="2" stroke-miterlimit="10"/>
<path d="M7.19238 22.9978V0.997772H18.8463V22.9978" stroke="white" stroke-width="2" stroke-linejoin="round"/>
<path d="M24.5918 23.0022V10.9622H21.0415" stroke="white" stroke-width="2" stroke-linejoin="round"/>
<path d="M21.6333 20.7V22.7" stroke="white" stroke-width="2" stroke-miterlimit="10"/>
<path d="M21.6333 17.2V19.2" stroke="white" stroke-width="2" stroke-miterlimit="10"/>
<path d="M21.6333 13.7V15.7" stroke="white" stroke-width="2" stroke-miterlimit="10"/>
<path d="M1.40845 23.0022V10.9622H4.95986" stroke="white" stroke-width="2" stroke-linejoin="round"/>
<path d="M4.3667 20.7V22.7" stroke="white" stroke-width="2" stroke-miterlimit="10"/>
<path d="M4.3667 17.2V19.2" stroke="white" stroke-width="2" stroke-miterlimit="10"/>
<path d="M4.3667 13.7V15.7" stroke="white" stroke-width="2" stroke-miterlimit="10"/>
</svg>
