<?xml version="1.0" encoding="UTF-8"?><svg id="Layer_1" xmlns="http://www.w3.org/2000/svg" width="167.74" height="201.5" viewBox="0 0 167.74 201.5"><defs><style>.cls-1,.cls-2{fill:none;}.cls-1,.cls-2,.cls-3{stroke:#000850;stroke-miterlimit:10;}.cls-1,.cls-3{stroke-width:1.5px;}.cls-2{stroke-width:3px;}.cls-4{fill:#000850;}.cls-5,.cls-3{fill:#dee2e6;}</style></defs><path class="cls-5" d="M133.99,127.31c-21.45,11.64-46.63,13.46-68.81,5.39,27.59,15.96,62.44,14.6,88.8-4.08-5.03,1.88-11.93,1.34-19.99-1.32Z"/><path class="cls-1" d="M164.69,119.61c-32.19,32.19-84.37,32.19-116.56,0C15.94,87.42,15.94,35.24,48.13,3.05"/><ellipse class="cls-3" cx="104.73" cy="63.01" rx="30.91" ry="82.42" transform="translate(-13.88 92.51) rotate(-45)"/><path class="cls-1" d="M154,128.64c-14.99,5.63-46.78-10.46-75.61-39.29C49.39,60.34,33.28,28.34,39.2,13.47"/><line class="cls-2" x1="133.31" y1="34.43" x2="82.87" y2="84.87"/><circle class="cls-4" cx="138.91" cy="28.83" r="7.93"/><g><line class="cls-1" x1="45.33" y1="116.81" x2="40.84" y2="121.29"/><line class="cls-1" x1="50.93" y1="122.41" x2="46.45" y2="126.89"/></g><g><line class="cls-1" x1="29.6" y1="148.44" x2="29.6" y2="154.78"/><line class="cls-1" x1="37.52" y1="148.44" x2="37.52" y2="154.78"/></g><circle class="cls-1" cx="33.56" cy="134.18" r="14.27"/><circle class="cls-1" cx="33.56" cy="134.18" r="6.34"/><g><path class="cls-1" d="M63.2,200.75H3.92c-2.41,0-3.94-2.59-2.77-4.7l19.62-39.63c.56-1.01,1.62-1.64,2.77-1.64h20.04c1.15,0,2.22,.63,2.77,1.64l19.62,39.63c1.16,2.11-.36,4.7-2.77,4.7Z"/><line class="cls-1" x1="1.44" y1="194.41" x2="65.1" y2="194.41"/></g></svg>