<?xml version="1.0" encoding="UTF-8"?><svg id="Layer_1" xmlns="http://www.w3.org/2000/svg" width="81.5" height="60.78" viewBox="0 0 81.5 60.78"><defs><style>.cls-1{stroke-miterlimit:10;}.cls-1,.cls-2{fill:none;stroke:#000850;stroke-linecap:round;stroke-width:1.5px;}.cls-2{stroke-linejoin:round;}</style></defs><path class="cls-2" d="M75.64,.75H5.86C3.04,.75,.75,3.04,.75,5.86V48.41c0,2.82,2.29,5.11,5.11,5.11h27.15c.15,.25,5.34,5.52,5.34,5.52,1.33,1.33,3.48,1.33,4.81,0,0,0,5.2-5.27,5.34-5.52h27.15c2.82,0,5.11-2.29,5.11-5.11V5.86c0-2.82-2.29-5.11-5.11-5.11Z"/><g><line class="cls-1" x1="34.5" y1="14.89" x2="24.58" y2="24.81"/><line class="cls-1" x1="34.5" y1="24.81" x2="24.58" y2="14.89"/><line class="cls-1" x1="56.63" y1="14.89" x2="46.71" y2="24.81"/><line class="cls-1" x1="56.63" y1="24.81" x2="46.71" y2="14.89"/><path class="cls-1" d="M50.38,39.57c-5.01-5.01-13.13-5.01-18.14,0"/></g></svg>