<svg id="Layer_1" data-name="Layer 1" xmlns="http://www.w3.org/2000/svg" xmlns:xlink="http://www.w3.org/1999/xlink" width="285.63" height="279.23" viewBox="0 0 285.63 279.23"><defs><style>.cls-1{fill:#414042;}.cls-2{fill:url(#åçûìßííûé_ãðàäèåíò_41);}.cls-3{fill:#fff;}.cls-4{fill:#efefef;}.cls-5{opacity:0.5;}.cls-6{fill:#4d5986;}.cls-7{fill:#e0e0e0;}.cls-8{fill:#71757a;}.cls-9{fill:#57a75b;}.cls-10{fill:#fbd019;}.cls-11{fill:#d69515;}.cls-12{fill:#4a75ff;}.cls-13{fill:#fad11b;}.cls-14{fill:#f04563;}.cls-15{fill:#f24465;}.cls-16{fill:#8429fb;}</style><linearGradient id="åçûìßííûé_ãðàäèåíò_41" x1="212.7" y1="95.17" x2="73.28" y2="294.28" gradientUnits="userSpaceOnUse"><stop offset="0" stop-color="#d1f0ff"/><stop offset="1" stop-color="#6fc8fc"/></linearGradient></defs><path class="cls-1" d="M260.53,272.58V123.2a8.25,8.25,0,0,0-8.25-8.25H33.35a8.25,8.25,0,0,0-8.25,8.25V272.58H0v2.06a8.4,8.4,0,0,0,1.74.61c5.82,1.6,22.44,4,24.59,4h233c2.15,0,18.77-2.38,24.59-4a8.4,8.4,0,0,0,1.74-.61v-2.06Z" transform="translate(0)"/><rect class="cls-2" x="31.2" y="124.64" width="223.59" height="140.17"/><circle cx="145.39" cy="119.63" r="2.6"/><rect class="cls-3" x="41.99" y="133.89" width="202" height="123" rx="3"/><path class="cls-4" d="M45,133.89H241a3,3,0,0,1,3,3v4a0,0,0,0,1,0,0H42a0,0,0,0,1,0,0v-4A3,3,0,0,1,45,133.89Z"/><g class="cls-5"><circle class="cls-6" cx="49.51" cy="137.39" r="1.89"/><circle class="cls-6" cx="54.63" cy="137.39" r="1.89"/><circle class="cls-6" cx="59.75" cy="137.39" r="1.89" transform="matrix(0.98, -0.19, 0.19, 0.98, -24.99, 13.83)"/></g><path class="cls-7" d="M144.93,230.92h-4.1a3.21,3.21,0,0,0-.52-.11,32.47,32.47,0,0,1-13.79-4c-11.5-6.44-17.75-16.28-18.58-29.45a31.64,31.64,0,0,1,3.25-16.23c6.21-12.47,16.33-19.25,30.23-20.17A32.31,32.31,0,0,1,159.3,165a34.5,34.5,0,0,1,18,24.8c.25,1.33.37,2.69.55,4V198c0,.2-.1.39-.12.59a32.92,32.92,0,0,1-4,13.85,34.53,34.53,0,0,1-24.83,18C147.6,230.62,146.26,230.74,144.93,230.92Zm-2.07-9.16a25.75,25.75,0,0,0,16.43-5.91,5.16,5.16,0,0,0,2-4.4,11.66,11.66,0,0,0-11.9-11.27c-4.35,0-8.7,0-13,0a11.68,11.68,0,0,0-11.89,10.48,5.26,5.26,0,0,0,1.8,5A25.73,25.73,0,0,0,142.86,221.76ZM131.31,183a11.58,11.58,0,1,0,11.54-11.58A11.61,11.61,0,0,0,131.31,183Z" transform="translate(0)"/><path class="cls-8" d="M142.86,221.76a25.75,25.75,0,0,0,16.43-5.91,5.16,5.16,0,0,0,2-4.4,11.66,11.66,0,0,0-11.9-11.27c-4.35,0-8.7,0-13,0a11.68,11.68,0,0,0-11.89,10.48,5.26,5.26,0,0,0,1.8,5A25.73,25.73,0,0,0,142.86,221.76ZM131.31,183a11.58,11.58,0,1,0,11.54-11.58A11.61,11.61,0,0,0,131.31,183Z" transform="translate(0)"/><circle class="cls-9" cx="171.93" cy="226.95" r="15" transform="translate(-9.11 7.2) rotate(-2.34)"/><path class="cls-3" d="M169.47,233a1.37,1.37,0,0,1-1-.42c-1.46-1.46-2.93-2.92-4.38-4.39a1.42,1.42,0,1,1,2-2c1,1,2,2,3,3,.33.33.33.33.67,0l7.79-7.79a1.6,1.6,0,0,1,1.15-.57,1.35,1.35,0,0,1,1.29.78,1.37,1.37,0,0,1-.14,1.5,3.45,3.45,0,0,1-.26.28q-4.5,4.52-9,9A1.5,1.5,0,0,1,169.47,233Z" transform="translate(0)"/><path class="cls-10" d="M118.6,56.21,83.81,157.87a3,3,0,0,0,4.25,3.57l94.39-51.88Z" transform="translate(0)"/><path class="cls-11" d="M182.9,108.9c-2.47,2.79-20.11-8.73-34.26-21C133.73,75,116.28,58.13,118.75,55.34S139,64.22,155,77.91,185.37,106.12,182.9,108.9Z" transform="translate(0)"/><rect class="cls-12" x="94.78" y="64.33" width="6.68" height="6.68"/><rect class="cls-12" x="176.24" y="129.2" width="6.68" height="6.68"/><rect class="cls-13" x="154.76" y="8.14" width="6.68" height="6.68" transform="translate(7.75 61.69) rotate(-22.62)"/><rect class="cls-14" x="150.98" y="36.18" width="6.68" height="6.68"/><rect class="cls-12" x="180.91" y="16.93" width="6.68" height="6.68" transform="translate(39.63 136.22) rotate(-45)"/><rect class="cls-13" x="216.85" y="34.29" width="6.68" height="6.68" transform="translate(24.2 144.8) rotate(-38.37)"/><rect class="cls-13" x="180.13" y="70.23" width="6.68" height="6.68" transform="translate(-6.04 129.77) rotate(-38.37)"/><rect class="cls-15" x="197.49" y="108.84" width="6.68" height="6.68" transform="translate(44.3 280.75) rotate(-76.31)"/><rect class="cls-12" x="124.83" y="1.35" width="6.68" height="6.68" transform="translate(24.77 80.57) rotate(-38.37)"/><path class="cls-12" d="M80.34,56.17l-5.46-3.85,0,0c2-2.91,9.69-12.47,23.14-13.42,10.77-.77,19.39,5.34,21,6.57l-4,5.31c-.79-.6-7.94-5.83-16.49-5.22C88,46.26,82,53.81,80.38,56.1Z" transform="translate(0)"/><path class="cls-15" d="M163.4,71.9a29.5,29.5,0,0,1,37.83-35.85l-2.13,6.33a22.83,22.83,0,0,0-29.27,27.74Z" transform="translate(0)"/><path class="cls-12" d="M169.91,99.8h0l-4.08-5.29c.34-.26,8.4-6.34,24.29-7.65a93.6,93.6,0,0,1,23,.81l2.09.29-.83,6.62c-.68-.08-1.42-.19-2.21-.3a87.33,87.33,0,0,0-21.54-.77C176.92,94.64,170,99.75,169.91,99.8Z" transform="translate(0)"/><path class="cls-16" d="M94.8,143.85a21.07,21.07,0,0,1-4.23-5.75l-3.16,9.24c.59.69,1.22,1.37,1.9,2a31.91,31.91,0,0,0,9.38,6.22l9.26-5.09A27.42,27.42,0,0,1,94.8,143.85Z" transform="translate(0)"/><path class="cls-16" d="M122.75,94.43a93.1,93.1,0,0,1-11.66-16.28l-3.28,9.59a100.26,100.26,0,0,0,9,11.68,85,85,0,0,0,22.41,18,75.18,75.18,0,0,0,16.71,6.71l10.55-5.8C149.68,116.09,135,108.07,122.75,94.43Z" transform="translate(0)"/><path class="cls-16" d="M104.23,114.5a59.52,59.52,0,0,1-3.65-5.63l-3.22,9.41.39.56a59.37,59.37,0,0,0,28.8,21.45l9.73-5.35A51.87,51.87,0,0,1,104.23,114.5Z" transform="translate(0)"/><path class="cls-15" d="M139.78,45.26a68.92,68.92,0,0,0-12.43-20.4l-4.83,4.61A63.62,63.62,0,0,1,133.69,48a64.52,64.52,0,0,1,4.46,30.52c2,1.83,4,3.66,6,5.45a71.49,71.49,0,0,0-4.38-38.73Z" transform="translate(0)"/></svg>