<?xml version="1.0" encoding="UTF-8"?><svg id="Layer_1" xmlns="http://www.w3.org/2000/svg" width="26" height="26" viewBox="0 0 26 26"><defs><style>.cls-1{fill:#fff;}</style></defs><path class="cls-1" d="M13,0C5.85,0,0,5.85,0,13s5.85,13,13,13,13-5.85,13-13S20.15,0,13,0ZM21.45,8.61c.65,0,1.14.49,1.79.49-.49.65-2.6.65-3.25-.16.49-.16.81-.32,1.46-.33ZM1.62,13c0-.65,0-1.3.16-2.11.16,0,.33.16.49.16,0,0,.16.16.16.32,0,.49.49.81.81.81,1.3.16,1.79,1.3,2.92,1.63.33.16.16.49,0,.81-.98,1.3-.16,2.27.65,3.09.81.65.81,1.3.97,2.27,0,1.14.16,2.44.65,3.57-4.06-1.95-6.82-5.85-6.82-10.56ZM13,24.38c-1.14,0-2.44-.16-3.41-.49-.16-.32-.16-.65,0-.98.65-1.3,1.3-2.44,2.11-3.57.32-.32.65-.65.65-1.14,0-.32.16-.81.32-1.14.49-.81.32-1.3-.32-1.46-1.3-.32-1.95-1.46-2.92-1.95s-1.95-.81-2.76-.32c-.33.16-.81.32-.81-.16,0-.65-.81-1.14-.65-1.79-.16,0-.33,0-.49.16s-.33.32-.65.16c-.33-.32-.16-.65-.16-.97.16-.32.33-.49.65-.65.65-.16,1.3-.16,1.62.65.49-1.46,1.46-2.28,2.44-2.93,0,0,1.3-1.14,1.46-1.14s.32.32.65.49c.32,0,.49,0,.49-.32.16-.81-.32-1.79-.97-1.95,0-.16.16-.16.16-.16.49-.16,1.14-.49.97-.98,0-.65-.65-.98-1.3-.98-.32,0-.65,0-.97.16-.65.33-1.46.65-2.44.65,1.79-1.3,4.06-1.95,6.34-1.95h1.3c-.98.16-1.95.49-2.6.81.97.16,1.14.65.81,1.46-.16.33,0,.65.32.81.33.16.65.16.81-.16.32-.49.98-.65,1.46-.81.65-.16,1.14-.49,1.62-1.14,0-.16.16-.16.32-.33.98.33,1.95.97,2.93,1.62-.16,0-.16.16-.32.16-.32.33-.81.49-.32,1.14.16.33,0,.49-.16.65-.32.16-.49,0-.65-.16s-.16-.49-.65-.49c-.16.33-.65.49-.65.97.81,0,.65.65.81,1.14-.98.16-1.3.65-.81,1.46.16.32-.16.49-.32.65-.65.97-1.3,1.62-1.3,2.76s.81,2.27,2.11,2.11q1.46-.16,1.95,1.14c0,.16.16.32.16.49.16.32.32.65.16.98-.49,1.3.16,2.27.65,3.25.16.32.32.49.49.65-2.11,2.27-4.88,3.57-8.13,3.57Z"/></svg>