<svg width="83" height="26" viewBox="0 0 83 26" fill="none" xmlns="http://www.w3.org/2000/svg">
<g clip-path="url(#clip0_21077_20022)">
<path d="M22.45 13.9247C21.94 13.4147 21.94 12.5847 22.45 12.0747L23.58 11.1347C23.8 10.9447 23.9 10.6547 23.84 10.3647C22.38 3.86469 15.93 -0.225313 9.43 1.22469C2.93 2.68469 -1.16001 9.13469 0.289995 15.6347C1.73999 22.1347 8.18999 26.2247 14.7 24.7747C19.26 23.7547 22.82 20.1947 23.84 15.6347C23.9 15.3547 23.81 15.0547 23.58 14.8747L22.45 13.9247ZM12.19 22.1447C7.13999 22.1447 3.04999 18.0547 3.04999 13.0047C3.04999 7.95469 7.13999 3.86469 12.19 3.86469C15.8 3.86469 19.08 5.99469 20.54 9.29469C20.64 9.50469 20.58 9.74469 20.41 9.89469L19.23 10.8847C19.14 10.9647 19 10.9647 18.91 10.8847L16.07 8.54469C13.61 6.34469 9.81999 6.55469 7.61999 9.01469C5.41999 11.4747 5.63 15.2647 8.09 17.4647C9.19 18.4447 10.61 18.9847 12.08 18.9847C13.76 18.9847 15.17 18.2447 16.36 17.1747L18.29 15.5447C18.4 15.4547 18.41 15.2947 18.32 15.1847C18.32 15.1747 18.3 15.1647 18.29 15.1547L16.42 13.5947C16.33 13.5147 16.19 13.5147 16.1 13.5947L13.67 15.6047C13.07 15.9747 12.37 16.1247 11.67 16.0347C9.99 15.8147 8.80999 14.2747 9.02999 12.5947C9.25 10.9147 10.79 9.73469 12.47 9.95469C12.88 10.0047 13.27 10.1447 13.62 10.3547C13.62 10.3547 13.82 10.5047 13.87 10.5447L20.46 15.9747C20.63 16.1147 20.69 16.3547 20.61 16.5547C19.18 19.9347 15.86 22.1347 12.19 22.1347V22.1447Z" fill="white"/>
<path d="M46.9701 17.9543L43.2501 9.4143H41.0901L45.8801 20.2343L45.5401 20.9643C45.0401 22.1343 44.4801 22.5943 43.5401 22.5943C42.8301 22.5943 42.1601 22.3143 41.6501 21.8143L41.5901 21.7643L40.6901 23.3343L40.7201 23.3643C41.3701 23.9943 42.4201 24.3743 43.5301 24.3743C45.3701 24.3743 46.5401 23.4643 47.4301 21.3443L52.7001 9.4043H50.6601L46.9801 17.9443L46.9701 17.9543Z" fill="white"/>
<path d="M35.11 7.73469C36.71 7.73469 38.01 8.28469 39.07 9.40469L39.11 9.44469L40.52 8.08469L40.48 8.04469C39.18 6.58469 37.29 5.80469 35.02 5.80469C32.91 5.80469 30.97 6.54469 29.58 7.88469C28.18 9.22469 27.41 11.0947 27.41 13.1447C27.41 15.1947 28.18 17.0647 29.57 18.4047C30.96 19.7447 32.89 20.4847 34.99 20.4847C37.23 20.4847 39.17 19.6847 40.47 18.2247L40.51 18.1847L39.1 16.8247L39.06 16.8647C38 17.9847 36.66 18.5547 35.1 18.5547C31.89 18.5547 29.56 16.2747 29.56 13.1447C29.56 10.0147 31.89 7.73469 35.09 7.73469H35.11Z" fill="white"/>
<path d="M58.7501 9.32422C55.4601 9.32422 53.0801 11.6642 53.0801 14.8742C53.0801 18.0842 55.4701 20.4442 58.7501 20.4442C62.0301 20.4442 64.4001 18.1042 64.4001 14.8742C64.4001 11.6442 62.0201 9.32422 58.7501 9.32422ZM62.3101 14.8742C62.3101 17.0742 60.8501 18.6142 58.7501 18.6142C56.6501 18.6142 55.1701 17.0742 55.1701 14.8742C55.1701 12.6742 56.6401 11.1542 58.7501 11.1542C60.8601 11.1542 62.3101 12.6842 62.3101 14.8742Z" fill="white"/>
<path d="M77.3501 9.32422C74.0601 9.32422 71.6801 11.6642 71.6801 14.8742C71.6801 18.0842 74.0701 20.4442 77.3501 20.4442C80.6301 20.4442 83.0001 18.1042 83.0001 14.8742C83.0001 11.6442 80.6201 9.32422 77.3501 9.32422ZM73.7701 14.8742C73.7701 12.6842 75.2401 11.1542 77.3501 11.1542C79.4601 11.1542 80.9101 12.6842 80.9101 14.8742C80.9101 17.0642 79.4501 18.6142 77.3501 18.6142C75.2401 18.6142 73.7701 17.0742 73.7701 14.8742Z" fill="white"/>
<path d="M69.06 5.10449H66.99V20.3145H69.06V5.10449Z" fill="white"/>
</g>
<defs>
<clipPath id="clip0_21077_20022">
<rect width="83" height="24.13" fill="white" transform="translate(0 0.93457)"/>
</clipPath>
</defs>
</svg>
